# Blender 4.4.3
# www.blender.org
mtllib sharp.mtl
o Cube
v 0.421243 0.696388 0.110376
v 1.000000 -1.000000 -1.000000
v 0.865955 0.990753 1.677537
v 0.824865 -0.320216 1.285742
v -1.000000 1.000000 -1.000000
v -0.761406 -0.762743 0.707038
v -0.053459 0.575940 1.373006
v -1.000000 -1.000000 1.000000
vn -0.0852 0.9944 0.0628
vn -0.1228 -0.2147 0.9689
vn -0.8946 0.3159 0.3159
vn 0.1964 -0.9607 0.1964
vn 0.9635 0.2357 -0.1270
vn -0.2151 -0.2151 -0.9526
vt 0.625000 0.500000
vt 0.875000 0.500000
vt 0.875000 0.750000
vt 0.625000 0.750000
vt 0.375000 0.750000
vt 0.625000 1.000000
vt 0.375000 1.000000
vt 0.375000 0.000000
vt 0.625000 0.000000
vt 0.625000 0.250000
vt 0.375000 0.074311
vt 0.125000 0.675689
vt 0.375000 0.500000
vt 0.125000 0.750000
s 0
usemtl Material
f 1/1/1 5/2/1 7/3/1 3/4/1
f 4/5/2 3/4/2 7/6/2 8/7/2
f 8/8/3 7/9/3 5/10/3 6/11/3
f 6/12/4 2/13/4 4/5/4 8/14/4
f 2/13/5 1/1/5 3/4/5 4/5/5
f 6/11/6 5/10/6 1/1/6 2/13/6
