# Blender 4.4.3
# www.blender.org
mtllib sphere.mtl
o Sphere
v 0.000000 0.923880 -0.382683
v 0.000000 0.707107 -0.707107
v 0.000000 0.382683 -0.923880
v 0.000000 -0.382683 -0.923880
v 0.000000 -0.707107 -0.707107
v 0.000000 -0.923880 -0.382683
v 0.299194 0.923880 -0.238599
v 0.552838 0.707107 -0.440874
v 0.722318 0.382683 -0.576029
v 0.781832 0.000000 -0.623490
v 0.722318 -0.382683 -0.576029
v 0.552838 -0.707107 -0.440874
v 0.299194 -0.923880 -0.238599
v 0.000000 -1.000000 0.000000
v 0.373089 0.923880 0.085155
v 0.689378 0.707107 0.157346
v 0.900716 0.382683 0.205583
v 0.974928 0.000000 0.222521
v 0.900716 -0.382683 0.205583
v 0.689378 -0.707107 0.157346
v 0.373089 -0.923880 0.085155
v 0.166040 0.923880 0.344786
v 0.306802 0.707107 0.637081
v 0.400856 0.382683 0.832387
v 0.433884 0.000000 0.900969
v 0.400856 -0.382683 0.832387
v 0.306802 -0.707107 0.637081
v 0.166040 -0.923880 0.344786
v 0.000000 1.000000 0.000000
v -0.166040 0.923880 0.344786
v -0.306802 0.707107 0.637081
v -0.400856 0.382683 0.832387
v -0.433884 0.000000 0.900969
v -0.400856 -0.382683 0.832387
v -0.306802 -0.707107 0.637081
v -0.166040 -0.923880 0.344786
v -0.373089 0.923880 0.085155
v -0.689378 0.707107 0.157346
v -0.900716 0.382683 0.205582
v -0.974928 0.000000 0.222521
v -0.900716 -0.382683 0.205582
v -0.689378 -0.707107 0.157346
v -0.373089 -0.923880 0.085155
v -0.299194 0.923880 -0.238599
v -0.552838 0.707107 -0.440874
v -0.722318 0.382683 -0.576030
v -0.781831 0.000000 -0.623490
v -0.722318 -0.382683 -0.576030
v -0.552838 -0.707107 -0.440874
v -0.299194 -0.923880 -0.238599
v 0.000000 0.000000 -1.000000
vn 0.0935 -0.9765 -0.1942
vn 0.3717 -0.5158 -0.7719
vn 0.4271 0.1764 -0.8868
vn 0.2585 0.8032 -0.5367
vn 0.2585 -0.8032 -0.5367
vn 0.4271 -0.1764 -0.8868
vn 0.3717 0.5158 -0.7719
vn 0.0935 0.9765 -0.1942
vn 0.5807 -0.8032 -0.1326
vn 0.9596 -0.1764 -0.2190
vn 0.8353 0.5158 -0.1906
vn 0.2102 0.9765 -0.0480
vn 0.2102 -0.9765 -0.0480
vn 0.8353 -0.5158 -0.1906
vn 0.9596 0.1764 -0.2190
vn 0.5807 0.8032 -0.1326
vn 0.7696 -0.1764 0.6137
vn 0.6698 0.5158 0.5342
vn 0.1686 0.9765 0.1344
vn 0.1686 -0.9765 0.1344
vn 0.6698 -0.5158 0.5342
vn 0.7696 0.1764 0.6137
vn 0.4657 0.8032 0.3714
vn 0.4657 -0.8032 0.3714
vn -0.0000 -0.9765 0.2156
vn -0.0000 -0.5158 0.8567
vn -0.0000 0.1764 0.9843
vn -0.0000 0.8032 0.5957
vn -0.0000 -0.8032 0.5957
vn -0.0000 -0.1764 0.9843
vn -0.0000 0.5158 0.8567
vn -0.0000 0.9765 0.2156
vn -0.7696 0.1764 0.6137
vn -0.4657 0.8032 0.3714
vn -0.4657 -0.8032 0.3714
vn -0.7696 -0.1764 0.6137
vn -0.6698 0.5158 0.5342
vn -0.1686 0.9765 0.1344
vn -0.1686 -0.9765 0.1344
vn -0.6698 -0.5158 0.5342
vn -0.5807 -0.8032 -0.1326
vn -0.9596 -0.1764 -0.2190
vn -0.8353 0.5158 -0.1906
vn -0.2102 0.9765 -0.0480
vn -0.2102 -0.9765 -0.0480
vn -0.8353 -0.5158 -0.1906
vn -0.9596 0.1764 -0.2190
vn -0.5807 0.8032 -0.1326
vn -0.3717 0.5158 -0.7719
vn -0.0935 0.9765 -0.1942
vn -0.0935 -0.9765 -0.1942
vn -0.3717 -0.5158 -0.7719
vn -0.4271 0.1764 -0.8868
vn -0.2585 0.8032 -0.5367
vn -0.2585 -0.8032 -0.5367
vn -0.4271 -0.1764 -0.8868
vt 0.642857 0.000000
vt 0.714286 0.125000
vt 0.571429 0.125000
vt 0.714286 0.250000
vt 0.714286 0.375000
vt 0.571429 0.375000
vt 0.571429 0.250000
vt 0.714286 0.500000
vt 0.714286 0.625000
vt 0.571429 0.625000
vt 0.571429 0.500000
vt 0.714286 0.750000
vt 0.714286 0.875000
vt 0.571429 0.875000
vt 0.571429 0.750000
vt 0.642857 1.000000
vt 0.428571 0.250000
vt 0.428571 0.125000
vt 0.428571 0.500000
vt 0.428571 0.375000
vt 0.428571 0.750000
vt 0.428571 0.625000
vt 0.500000 1.000000
vt 0.428571 0.875000
vt 0.500000 0.000000
vt 0.285714 0.500000
vt 0.285714 0.375000
vt 0.285714 0.750000
vt 0.285714 0.625000
vt 0.357143 1.000000
vt 0.285714 0.875000
vt 0.357143 0.000000
vt 0.285714 0.125000
vt 0.285714 0.250000
vt 0.214286 0.000000
vt 0.142857 0.125000
vt 0.142857 0.375000
vt 0.142857 0.250000
vt 0.142857 0.625000
vt 0.142857 0.500000
vt 0.142857 0.875000
vt 0.142857 0.750000
vt 0.214286 1.000000
vt 0.000000 0.625000
vt 0.000000 0.500000
vt 0.000000 0.875000
vt 0.000000 0.750000
vt 0.000000 0.250000
vt 0.000000 0.125000
vt 0.000000 0.375000
vt 0.071429 1.000000
vt 0.071429 0.000000
vt 1.000000 0.125000
vt 1.000000 0.250000
vt 0.857143 0.250000
vt 0.857143 0.125000
vt 1.000000 0.375000
vt 1.000000 0.500000
vt 0.857143 0.500000
vt 0.857143 0.375000
vt 1.000000 0.625000
vt 1.000000 0.750000
vt 0.857143 0.750000
vt 0.857143 0.625000
vt 1.000000 0.875000
vt 0.928571 1.000000
vt 0.857143 0.875000
vt 0.928571 0.000000
vt 0.785714 1.000000
vt 0.785714 0.000000
s 0
f 14/1/1 6/2/1 13/3/1
f 5/4/2 4/5/2 11/6/2 12/7/2
f 51/8/3 3/9/3 9/10/3 10/11/3
f 2/12/4 1/13/4 7/14/4 8/15/4
f 6/2/5 5/4/5 12/7/5 13/3/5
f 4/5/6 51/8/6 10/11/6 11/6/6
f 3/9/7 2/12/7 8/15/7 9/10/7
f 1/13/8 29/16/8 7/14/8
f 13/3/9 12/7/9 20/17/9 21/18/9
f 11/6/10 10/11/10 18/19/10 19/20/10
f 9/10/11 8/15/11 16/21/11 17/22/11
f 7/14/12 29/23/12 15/24/12
f 14/25/13 13/3/13 21/18/13
f 12/7/14 11/6/14 19/20/14 20/17/14
f 10/11/15 9/10/15 17/22/15 18/19/15
f 8/15/16 7/14/16 15/24/16 16/21/16
f 19/20/17 18/19/17 25/26/17 26/27/17
f 17/22/18 16/21/18 23/28/18 24/29/18
f 15/24/19 29/30/19 22/31/19
f 14/32/20 21/18/20 28/33/20
f 20/17/21 19/20/21 26/27/21 27/34/21
f 18/19/22 17/22/22 24/29/22 25/26/22
f 16/21/23 15/24/23 22/31/23 23/28/23
f 21/18/24 20/17/24 27/34/24 28/33/24
f 14/35/25 28/33/25 36/36/25
f 27/34/26 26/27/26 34/37/26 35/38/26
f 25/26/27 24/29/27 32/39/27 33/40/27
f 23/28/28 22/31/28 30/41/28 31/42/28
f 28/33/29 27/34/29 35/38/29 36/36/29
f 26/27/30 25/26/30 33/40/30 34/37/30
f 24/29/31 23/28/31 31/42/31 32/39/31
f 22/31/32 29/43/32 30/41/32
f 33/40/33 32/39/33 39/44/33 40/45/33
f 31/42/34 30/41/34 37/46/34 38/47/34
f 36/36/35 35/38/35 42/48/35 43/49/35
f 34/37/36 33/40/36 40/45/36 41/50/36
f 32/39/37 31/42/37 38/47/37 39/44/37
f 30/41/38 29/51/38 37/46/38
f 14/52/39 36/36/39 43/49/39
f 35/38/40 34/37/40 41/50/40 42/48/40
f 43/53/41 42/54/41 49/55/41 50/56/41
f 41/57/42 40/58/42 47/59/42 48/60/42
f 39/61/43 38/62/43 45/63/43 46/64/43
f 37/65/44 29/66/44 44/67/44
f 14/68/45 43/53/45 50/56/45
f 42/54/46 41/57/46 48/60/46 49/55/46
f 40/58/47 39/61/47 46/64/47 47/59/47
f 38/62/48 37/65/48 44/67/48 45/63/48
f 46/64/49 45/63/49 2/12/49 3/9/49
f 44/67/50 29/69/50 1/13/50
f 14/70/51 50/56/51 6/2/51
f 49/55/52 48/60/52 4/5/52 5/4/52
f 47/59/53 46/64/53 3/9/53 51/8/53
f 45/63/54 44/67/54 1/13/54 2/12/54
f 50/56/55 49/55/55 5/4/55 6/2/55
f 48/60/56 47/59/56 51/8/56 4/5/56
