# Blender 4.5.3 LTS
# www.blender.org
o bodymesh
v -0.565124 1.336235 0.002388
v -0.529638 1.331760 0.007262
v -0.473887 1.326298 0.012162
v -0.627303 1.389255 0.001058
v -0.627303 1.394597 0.001058
v -0.584381 1.368766 0.003708
v -0.585390 1.395939 0.002844
v -0.529638 1.365909 0.012546
v -0.529638 1.397863 0.005284
v -0.473887 1.365909 0.019362
v -0.473887 1.399661 0.007200
v -0.168499 0.382470 0.057814
v -0.170051 0.418136 0.061199
v -0.169500 0.316454 0.010753
v -0.171424 0.363285 0.028753
v -0.172674 0.418136 0.027876
v -0.118681 0.041483 0.117080
v -0.118681 0.058250 0.117080
v -0.117981 0.432503 0.115531
v -0.126944 0.031552 0.083627
v -0.126944 0.068227 0.083627
v -0.117806 0.208383 0.059820
v -0.125151 0.250881 0.065213
v -0.132700 0.306633 0.071632
v -0.143625 0.363285 0.074904
v -0.137690 0.415606 0.092749
v -0.132592 0.029662 0.027876
v -0.136041 0.086533 0.031369
v -0.132237 0.139379 0.024336
v -0.134178 0.191932 0.032701
v -0.151503 0.250881 0.027876
v -0.161871 0.301375 0.028753
v -0.165039 0.345302 0.047921
v -0.100514 0.041483 0.117080
v -0.100514 0.058250 0.117080
v -0.100321 0.432503 0.115531
v -0.082609 0.033344 0.080522
v -0.082609 0.066330 0.080522
v -0.098602 0.208383 0.059820
v -0.089526 0.250881 0.065213
v -0.079362 0.305450 0.070161
v -0.083627 0.362384 0.087131
v -0.082493 0.415606 0.102259
v -0.083627 0.020665 0.027876
v -0.078230 0.096688 0.031369
v -0.078230 0.139244 0.019828
v -0.081462 0.191932 0.037926
v -0.061651 0.250881 0.044017
v -0.057934 0.286078 0.050579
v -0.055124 0.050671 0.059869
v -0.055124 0.056749 0.059869
v -0.053232 0.323245 0.058593
v -0.047308 0.362384 0.064737
v -0.039949 0.418136 0.073087
v -0.054332 0.046755 0.027876
v -0.054332 0.068446 0.027876
v -0.055530 0.157739 0.000597
v -0.054450 0.195130 0.006531
v -0.051387 0.250881 0.016141
v -0.046069 0.305450 0.030347
v -0.033118 0.362384 0.027876
v -0.029266 0.418136 0.027876
v -0.171349 0.473887 0.065142
v -0.173208 0.529638 0.069174
v -0.176536 0.585390 0.073690
v -0.179474 0.641141 0.076559
v -0.180796 0.696892 0.076971
v -0.180528 0.752644 0.075299
v -0.178919 0.808395 0.071886
v -0.175251 0.864147 0.066350
v -0.170554 0.469129 0.023745
v -0.175218 0.524944 0.023745
v -0.187556 0.585390 0.027876
v -0.195416 0.641141 0.027876
v -0.199273 0.696892 0.027876
v -0.199891 0.752644 0.027876
v -0.198071 0.808395 0.027876
v -0.191220 0.864147 0.027876
v -0.124867 0.473887 0.120726
v -0.127735 0.529638 0.121535
v -0.129177 0.585390 0.120592
v -0.131891 0.641141 0.122223
v -0.131831 0.696892 0.122229
v -0.129468 0.752644 0.121081
v -0.124258 0.808395 0.118250
v -0.117739 0.854844 0.114748
v -0.152742 0.473887 0.093017
v -0.155611 0.529638 0.097050
v -0.157053 0.585390 0.101566
v -0.159767 0.641141 0.104434
v -0.159707 0.696892 0.104846
v -0.157343 0.752644 0.103174
v -0.152133 0.808395 0.099761
v -0.137545 0.869715 0.097680
v -0.166421 0.484541 0.002408
v -0.166421 0.503231 0.002408
v -0.090552 0.473887 0.120726
v -0.086162 0.529638 0.121535
v -0.085575 0.585390 0.120592
v -0.078682 0.638447 0.121019
v -0.083627 0.696892 0.125964
v -0.083627 0.752644 0.126266
v -0.083627 0.808395 0.122955
v -0.089196 0.869715 0.117003
v -0.062677 0.473887 0.106600
v -0.058286 0.529638 0.109468
v -0.057699 0.585390 0.110433
v -0.056801 0.618067 0.110860
v -0.111492 0.892011 0.111501
v -0.053406 0.655234 0.113071
v -0.049905 0.696892 0.115238
v -0.047235 0.752644 0.116688
v -0.045440 0.808395 0.116208
v -0.028744 0.863761 0.117334
v -0.035871 0.473887 0.078724
v -0.024945 0.526134 0.080770
v -0.027876 0.585390 0.093232
v -0.032044 0.638447 0.098275
v -0.022029 0.696892 0.097984
v -0.019360 0.752644 0.099405
v -0.017564 0.808395 0.102592
v -0.010739 0.844920 0.107538
v -0.031886 0.473887 0.027876
v -0.020038 0.526134 0.026868
v -0.009335 0.585390 0.006996
v -0.001365 0.615294 0.001716
v -0.418136 1.327929 0.010288
v -0.362384 1.329852 0.008931
v -0.306633 1.326585 0.012113
v -0.250881 1.324480 0.014115
v -0.170886 0.905763 0.060543
v -0.180502 0.922567 0.032141
v -0.175928 0.975650 0.014526
v -0.169206 1.007487 0.002968
v -0.195130 1.322423 0.014992
v -0.144104 0.922567 0.079315
v -0.131118 0.975650 0.074957
v -0.118640 1.031401 0.063709
v -0.112034 1.077571 0.056654
v -0.113777 1.330614 0.056858
v -0.165838 0.942931 0.053568
v -0.158993 0.975650 0.042402
v -0.145858 1.028203 0.024081
v -0.119410 1.092554 0.033412
v -0.113576 1.133333 0.018519
v -0.121874 1.264047 0.015222
v -0.136409 1.309995 0.031299
v -0.074253 0.919898 0.114704
v -0.061114 0.975650 0.112662
v -0.057035 1.031401 0.112074
v -0.056408 1.061876 0.111838
v -0.102129 0.919898 0.109488
v -0.088990 0.975650 0.102833
v -0.084910 1.031401 0.091585
v -0.083951 1.088307 0.082970
v -0.081416 1.142904 0.078248
v -0.079583 1.198655 0.076204
v -0.080314 1.254407 0.076663
v -0.088023 1.311281 0.072578
v -0.111494 1.114738 0.055687
v -0.109715 1.148312 0.033412
v -0.107341 1.198655 0.027876
v -0.108777 1.249041 0.031434
v -0.109538 1.293447 0.052389
v -0.027876 0.919898 0.119820
v -0.027876 0.975650 0.118263
v -0.027876 1.031401 0.118022
v -0.027062 1.083137 0.114682
v -0.007936 1.128077 0.112982
v -0.004266 1.264978 0.112620
v -0.003442 1.310158 0.112406
v -0.045104 1.099044 0.109286
v -0.027062 1.145158 0.106823
v -0.027876 1.198655 0.103547
v -0.024860 1.249599 0.105881
v -0.031318 1.310158 0.103830
v -0.418136 1.365909 0.017547
v -0.418136 1.399945 0.007259
v -0.362384 1.365909 0.016637
v -0.362384 1.400402 0.007705
v -0.306633 1.365909 0.022342
v -0.306633 1.402703 0.010229
v -0.250881 1.365909 0.025917
v -0.250881 1.404142 0.011802
v -0.195130 1.365909 0.027256
v -0.195130 1.406695 0.012264
v -0.113777 1.342216 0.056858
v -0.135168 1.362844 0.042220
v -0.137518 1.422222 0.015684
v -0.117693 1.457559 0.003150
v -0.111735 1.559934 0.000461
v -0.111735 1.563314 0.000461
v -0.085545 1.362844 0.068559
v -0.068240 1.406059 0.063292
v -0.059044 1.498530 0.058879
v -0.064209 1.533164 0.064417
v -0.064857 1.588915 0.065186
v -0.064136 1.644666 0.063422
v -0.062775 1.687779 0.061826
v -0.105408 1.379383 0.051787
v -0.085545 1.423450 0.041415
v -0.082682 1.478044 0.027203
v -0.092859 1.538076 0.022577
v -0.095632 1.584705 0.022577
v -0.087308 1.644666 0.027876
v -0.077166 1.703985 0.032051
v -0.070682 1.735870 0.016250
v -0.000324 1.338294 0.111590
v -0.002928 1.556068 0.112975
v -0.002928 1.564626 0.112975
v -0.022495 1.360490 0.096832
v -0.025638 1.423450 0.067874
v -0.025638 1.478932 0.067719
v -0.024058 1.535756 0.094114
v -0.024058 1.585492 0.093172
v -0.027876 1.644666 0.083407
v -0.031757 1.703985 0.072800
v -0.015760 1.738530 0.064065
v -0.042731 1.443227 0.051256
v -0.042731 1.461362 0.051256
v -0.052928 1.724947 0.053418
v -0.008815 1.720869 0.009843
v -0.030871 1.737200 0.031631
v -0.565124 1.336235 -0.012039
v -0.532309 1.331094 -0.029524
v -0.515506 1.334831 -0.058597
v -0.473887 1.320142 -0.027876
v -0.473887 1.331878 -0.060868
v -0.627303 1.389255 -0.005216
v -0.627303 1.394597 -0.005216
v -0.584381 1.368766 -0.018395
v -0.585390 1.395939 -0.013964
v -0.541950 1.365909 -0.046957
v -0.525667 1.397137 -0.030342
v -0.514075 1.365909 -0.058001
v -0.504436 1.393934 -0.055906
v -0.473887 1.400467 -0.027876
v -0.473887 1.365909 -0.061660
v -0.473887 1.394591 -0.056543
v -0.169500 0.316454 -0.006458
v -0.171532 0.362384 -0.010484
v -0.169878 0.418136 -0.005693
v -0.130828 0.031956 -0.027876
v -0.142354 0.083627 -0.027876
v -0.129645 0.142235 -0.033107
v -0.133280 0.191258 -0.033107
v -0.147946 0.250881 -0.027876
v -0.156707 0.301375 -0.026175
v -0.153939 0.362384 -0.038359
v -0.147335 0.418136 -0.033568
v -0.122560 0.040813 -0.063876
v -0.121739 0.083627 -0.062943
v -0.114094 0.125555 -0.057215
v -0.116310 0.207260 -0.058339
v -0.121594 0.250881 -0.061299
v -0.126244 0.306633 -0.063940
v -0.126064 0.362384 -0.063992
v -0.119460 0.418136 -0.060583
v -0.078861 0.032566 -0.029550
v -0.065391 0.087609 -0.029550
v -0.081694 0.141647 -0.027918
v -0.085585 0.191258 -0.035707
v -0.071185 0.250881 -0.036729
v -0.065841 0.306633 -0.043337
v -0.066921 0.362384 -0.045298
v -0.074608 0.418136 -0.040458
v -0.094268 0.040813 -0.063876
v -0.095455 0.083627 -0.062943
v -0.107341 0.125555 -0.057215
v -0.105475 0.207260 -0.058339
v -0.099061 0.250881 -0.061299
v -0.093716 0.306633 -0.063940
v -0.094796 0.362384 -0.063992
v -0.102483 0.418136 -0.060583
v -0.054487 0.048836 -0.012082
v -0.054487 0.071680 -0.012082
v -0.055530 0.157739 -0.000657
v -0.054450 0.195130 -0.003251
v -0.051387 0.250881 -0.008853
v -0.045538 0.306633 -0.015461
v -0.041562 0.362384 -0.017422
v -0.045069 0.418136 -0.012582
v -0.167295 0.447373 -0.000070
v -0.172589 0.540399 -0.009312
v -0.176449 0.589948 -0.027888
v -0.187755 0.641141 -0.027876
v -0.195789 0.696892 -0.027876
v -0.198650 0.752644 -0.027876
v -0.197708 0.808395 -0.027876
v -0.191564 0.864147 -0.027876
v -0.167885 0.611571 -0.056366
v -0.171813 0.641141 -0.060690
v -0.177312 0.696892 -0.067113
v -0.179287 0.752644 -0.069612
v -0.178556 0.808395 -0.068808
v -0.175594 0.864147 -0.066206
v -0.140063 0.467087 -0.024638
v -0.144453 0.524944 -0.023852
v -0.139379 0.570539 -0.048663
v -0.113705 0.449632 -0.057316
v -0.139379 0.598415 -0.061435
v -0.139379 0.641141 -0.075037
v -0.139379 0.696892 -0.088061
v -0.139379 0.752644 -0.094407
v -0.139379 0.808395 -0.095188
v -0.135710 0.861843 -0.097143
v -0.114681 0.878891 -0.113288
v -0.087459 0.470485 -0.033596
v -0.083627 0.529638 -0.029218
v -0.079398 0.580101 -0.048077
v -0.057994 0.618043 -0.053962
v -0.108598 0.449632 -0.057316
v -0.095162 0.595160 -0.062715
v -0.079398 0.638433 -0.069281
v -0.083627 0.696892 -0.084226
v -0.083627 0.752644 -0.092742
v -0.083627 0.808395 -0.099909
v -0.083627 0.846521 -0.107579
v -0.083627 0.874397 -0.116383
v -0.051766 0.473887 -0.005091
v -0.049618 0.529638 -0.006387
v -0.037211 0.585390 -0.018417
v -0.026647 0.635252 -0.030256
v -0.019633 0.696892 -0.039717
v -0.014652 0.752644 -0.043574
v -0.008120 0.796077 -0.048860
v -0.051930 0.655211 -0.059171
v -0.047509 0.696892 -0.063279
v -0.042527 0.752644 -0.067948
v -0.027172 0.812155 -0.070832
v -0.027876 0.855291 -0.095244
v -0.027876 0.883167 -0.116143
v -0.415471 1.326947 -0.030478
v -0.432279 1.333028 -0.059728
v -0.362384 1.329852 -0.022469
v -0.310083 1.326139 -0.032098
v -0.293799 1.333474 -0.059467
v -0.246425 1.324455 -0.032995
v -0.262039 1.333474 -0.059467
v -0.180803 0.924369 -0.032941
v -0.175928 0.975650 -0.016264
v -0.169206 1.007487 -0.003950
v -0.195130 1.322423 -0.025597
v -0.171388 0.908765 -0.061584
v -0.166745 0.945933 -0.054902
v -0.161964 0.975650 -0.044139
v -0.147828 1.028203 -0.024671
v -0.119548 1.083068 -0.026098
v -0.113576 1.133333 -0.006330
v -0.121874 1.264047 -0.013081
v -0.140880 1.310049 -0.033277
v -0.148659 0.924369 -0.081552
v -0.137944 0.975650 -0.083627
v -0.120163 1.027422 -0.078886
v -0.112263 1.061761 -0.057142
v -0.122719 1.330722 -0.057780
v -0.116517 0.919898 -0.114860
v -0.115358 0.975650 -0.116465
v -0.113136 1.006186 -0.115428
v -0.105604 1.098929 -0.043497
v -0.101300 1.148312 -0.026098
v -0.094888 1.198655 -0.027876
v -0.101737 1.249041 -0.030149
v -0.106273 1.293554 -0.050249
v -0.097017 1.043354 -0.094310
v -0.082727 1.083204 -0.082082
v -0.070897 1.142904 -0.070885
v -0.067130 1.198655 -0.063997
v -0.071514 1.254407 -0.065084
v -0.086064 1.311346 -0.067353
v -0.083627 0.919898 -0.131936
v -0.083430 0.970714 -0.148601
v -0.093553 1.027422 -0.136158
v -0.065915 1.086499 -0.144790
v -0.055820 1.115083 -0.166982
v -0.058435 0.945738 -0.207226
v -0.072660 0.970714 -0.191237
v -0.095207 1.031401 -0.195130
v -0.079708 1.087152 -0.195130
v -0.059376 1.118195 -0.195130
v -0.058435 0.945738 -0.226902
v -0.071353 0.976137 -0.247644
v -0.090822 1.031401 -0.250881
v -0.072674 1.091256 -0.253786
v -0.060515 1.119195 -0.237139
v -0.062537 0.995046 -0.288034
v -0.067669 1.031401 -0.298863
v -0.064856 1.075408 -0.296288
v -0.049072 1.104647 -0.107022
v -0.040781 1.142904 -0.098761
v -0.025482 1.196323 -0.089965
v -0.027876 1.254407 -0.079954
v -0.027876 1.310158 -0.086946
v -0.032829 0.922189 -0.148343
v -0.054715 0.948840 -0.166717
v -0.049072 1.104647 -0.129814
v -0.027188 1.138688 -0.142235
v -0.005303 1.176185 -0.117488
v -0.032829 0.936278 -0.191237
v -0.054715 0.948840 -0.170059
v -0.027876 1.134051 -0.195130
v -0.026879 0.936359 -0.247644
v -0.044798 0.957878 -0.264069
v -0.053230 1.112576 -0.274306
v -0.031938 1.128681 -0.253786
v -0.007630 0.942434 -0.285302
v -0.026879 0.976137 -0.298721
v -0.032666 1.027470 -0.327613
v -0.042870 1.091256 -0.311576
v -0.012756 1.121099 -0.306633
v -0.017275 1.043433 -0.341004
v -0.013665 1.087152 -0.340135
v -0.000945 1.115579 -0.335515
v -0.394828 1.365909 -0.051819
v -0.413304 1.399268 -0.033278
v -0.422704 1.365909 -0.059410
v -0.428667 1.394710 -0.056652
v -0.362384 1.365909 -0.047939
v -0.362384 1.400402 -0.025470
v -0.327068 1.365909 -0.051871
v -0.308381 1.402182 -0.031699
v -0.299193 1.365909 -0.059968
v -0.290963 1.395889 -0.057658
v -0.229911 1.365909 -0.053173
v -0.249711 1.403333 -0.031844
v -0.257787 1.365909 -0.059968
v -0.267515 1.395889 -0.057658
v -0.193550 1.367657 -0.052322
v -0.193550 1.404652 -0.031844
v -0.173913 1.387406 -0.056413
v -0.173913 1.394683 -0.056413
v -0.159887 1.350238 -0.053473
v -0.137518 1.425854 -0.025085
v -0.117693 1.457559 -0.004640
v -0.111735 1.559934 -0.000985
v -0.111735 1.563314 -0.000985
v -0.140533 1.367657 -0.058943
v -0.139379 1.398324 -0.058219
v -0.083627 1.437353 -0.044014
v -0.086093 1.476650 -0.020758
v -0.086175 1.536678 -0.025616
v -0.099951 1.584705 -0.022892
v -0.094400 1.644666 -0.027876
v -0.079897 1.699364 -0.027275
v -0.070682 1.735870 -0.008290
v -0.083627 1.365909 -0.071908
v -0.083627 1.409477 -0.063049
v -0.066030 1.550590 -0.061109
v -0.070255 1.588915 -0.063360
v -0.071228 1.644666 -0.065615
v -0.067327 1.680078 -0.064117
v -0.049279 1.446722 -0.054045
v -0.045599 1.477412 -0.050343
v -0.048687 1.513422 -0.050247
v -0.027590 1.706327 -0.027275
v -0.045983 1.735870 -0.008290
v -0.027876 1.365909 -0.086626
v -0.029567 1.425547 -0.067959
v -0.017723 1.477412 -0.062302
v -0.029212 1.532469 -0.073481
v -0.027876 1.588915 -0.090071
v -0.027876 1.644666 -0.081182
v -0.027876 1.678528 -0.064187
v 0.055124 0.050671 0.059869
v 0.055124 0.056749 0.059869
v 0.054152 0.270317 0.057601
v 0.050646 0.306633 0.061452
v 0.044640 0.362384 0.067570
v 0.038920 0.418136 0.074050
v 0.054332 0.046755 0.027876
v 0.054332 0.068446 0.027876
v 0.055530 0.157739 0.000597
v 0.054358 0.195130 0.006823
v 0.049847 0.251393 0.027400
v 0.037756 0.306633 0.027876
v 0.028891 0.362384 0.027876
v 0.027274 0.418136 0.027876
v 0.100514 0.041483 0.117080
v 0.100514 0.058250 0.117080
v 0.100321 0.432503 0.115531
v 0.082609 0.033344 0.080522
v 0.082609 0.066330 0.080522
v 0.098602 0.208383 0.059820
v 0.081462 0.251393 0.064431
v 0.083627 0.306633 0.077333
v 0.083627 0.362384 0.089964
v 0.082493 0.415606 0.103030
v 0.083627 0.020665 0.027876
v 0.078230 0.096688 0.031369
v 0.078230 0.139245 0.019828
v 0.081462 0.191932 0.038159
v 0.061434 0.233150 0.045667
v 0.118681 0.041483 0.117080
v 0.118681 0.058250 0.117080
v 0.117981 0.432503 0.115531
v 0.126944 0.031552 0.083627
v 0.126944 0.068227 0.083627
v 0.117807 0.208383 0.059820
v 0.125151 0.250881 0.065213
v 0.132700 0.306633 0.071632
v 0.143625 0.363285 0.074904
v 0.137690 0.415606 0.092749
v 0.132592 0.029662 0.027876
v 0.136041 0.086533 0.031369
v 0.132237 0.139379 0.024336
v 0.134178 0.191932 0.032701
v 0.151503 0.250881 0.027876
v 0.161871 0.301375 0.028753
v 0.165039 0.345302 0.047921
v 0.168499 0.382470 0.057814
v 0.170051 0.418136 0.061199
v 0.169500 0.316454 0.010753
v 0.171424 0.363285 0.028753
v 0.172674 0.418136 0.027876
v 0.052988 0.597941 0.113725
v 0.049630 0.641141 0.116056
v 0.046000 0.696892 0.118192
v 0.045621 0.752644 0.117932
v 0.045440 0.808395 0.116208
v 0.028744 0.863761 0.117334
v 0.035144 0.473887 0.079213
v 0.024665 0.526134 0.081125
v 0.031793 0.581770 0.097486
v 0.021754 0.641141 0.095449
v 0.018125 0.696892 0.097984
v 0.017745 0.752644 0.099405
v 0.017564 0.808395 0.102592
v 0.010739 0.844920 0.107538
v 0.028667 0.473887 0.027876
v 0.016919 0.526134 0.026868
v 0.007775 0.585390 0.006996
v 0.001170 0.615294 0.001716
v 0.090552 0.473887 0.120726
v 0.086162 0.529638 0.121535
v 0.078981 0.581770 0.120107
v 0.083627 0.641141 0.126776
v 0.083627 0.696892 0.128918
v 0.083627 0.752644 0.127510
v 0.083627 0.808395 0.122955
v 0.089196 0.869715 0.117003
v 0.062677 0.473887 0.107089
v 0.058286 0.529638 0.109912
v 0.057299 0.560774 0.111075
v 0.111492 0.892011 0.111501
v 0.124867 0.473887 0.120726
v 0.127735 0.529638 0.121535
v 0.129177 0.585390 0.120592
v 0.131891 0.641141 0.122223
v 0.131831 0.696892 0.122229
v 0.129468 0.752644 0.121081
v 0.124258 0.808395 0.118250
v 0.117739 0.854844 0.114748
v 0.152742 0.473887 0.093017
v 0.155611 0.529638 0.097050
v 0.157053 0.585390 0.101566
v 0.159767 0.641141 0.104434
v 0.159707 0.696892 0.104846
v 0.157343 0.752644 0.103174
v 0.152133 0.808395 0.099761
v 0.137545 0.869715 0.097680
v 0.166473 0.484541 0.002408
v 0.166473 0.503231 0.002408
v 0.171349 0.473887 0.065142
v 0.173208 0.529638 0.069174
v 0.176536 0.585390 0.073690
v 0.179474 0.641141 0.076559
v 0.180796 0.696892 0.076971
v 0.180528 0.752644 0.075299
v 0.178919 0.808395 0.071886
v 0.175251 0.864147 0.066350
v 0.170554 0.469129 0.023745
v 0.175218 0.524944 0.023745
v 0.187556 0.585390 0.027876
v 0.195416 0.641141 0.027876
v 0.199273 0.696892 0.027876
v 0.199891 0.752644 0.027876
v 0.198071 0.808395 0.027876
v 0.191220 0.864147 0.027876
v 0.027876 0.919898 0.119820
v 0.027876 0.975650 0.118263
v 0.027876 1.031401 0.118022
v 0.027062 1.083137 0.114682
v 0.007936 1.128077 0.112982
v 0.004268 1.264978 0.112620
v 0.003444 1.310158 0.112406
v 0.045104 1.099044 0.109286
v 0.027062 1.145158 0.106823
v 0.027876 1.198655 0.103548
v 0.024861 1.249599 0.105883
v 0.031319 1.310158 0.103834
v 0.074253 0.919898 0.114704
v 0.061114 0.975650 0.112662
v 0.057035 1.031401 0.112074
v 0.056408 1.061876 0.111838
v 0.102129 0.919898 0.109488
v 0.088990 0.975650 0.102833
v 0.084910 1.031401 0.091585
v 0.083951 1.088307 0.082970
v 0.081417 1.142904 0.078249
v 0.079583 1.198655 0.076206
v 0.080314 1.254407 0.076665
v 0.088023 1.311281 0.072581
v 0.111494 1.114738 0.055687
v 0.109715 1.148312 0.033412
v 0.107341 1.198655 0.027876
v 0.108777 1.249041 0.031434
v 0.109538 1.293446 0.052389
v 0.144104 0.922567 0.079315
v 0.131118 0.975650 0.074957
v 0.118640 1.031401 0.063710
v 0.112034 1.077571 0.056654
v 0.113777 1.330614 0.056859
v 0.165838 0.942931 0.053568
v 0.158993 0.975650 0.042402
v 0.145858 1.028203 0.024081
v 0.119410 1.092554 0.033412
v 0.113576 1.133333 0.018519
v 0.121874 1.264047 0.015222
v 0.136410 1.309994 0.031299
v 0.170886 0.905763 0.060543
v 0.180502 0.922567 0.032141
v 0.175928 0.975650 0.014526
v 0.169207 1.007487 0.002968
v 0.195130 1.322423 0.014992
v 0.250881 1.324480 0.014115
v 0.306633 1.326585 0.012113
v 0.362384 1.329869 0.008913
v 0.418136 1.327946 0.010270
v 0.000324 1.338294 0.111590
v 0.002928 1.556068 0.112975
v 0.002928 1.564626 0.112975
v 0.022495 1.360490 0.096837
v 0.025639 1.423453 0.067877
v 0.025639 1.478932 0.067719
v 0.024058 1.535756 0.094494
v 0.024058 1.585492 0.093469
v 0.027876 1.644666 0.088488
v 0.027876 1.700418 0.087868
v 0.027876 1.745800 0.067609
v 0.042732 1.443231 0.051257
v 0.042732 1.461361 0.051257
v 0.011091 1.720869 0.009843
v 0.028955 1.746430 0.028206
v 0.085547 1.362844 0.068564
v 0.068244 1.406063 0.063297
v 0.059044 1.498529 0.058879
v 0.064680 1.533164 0.064892
v 0.065243 1.588915 0.065558
v 0.067230 1.644666 0.068503
v 0.067882 1.700418 0.071114
v 0.060664 1.741400 0.063249
v 0.105411 1.379384 0.051788
v 0.085547 1.423453 0.041416
v 0.082682 1.478044 0.027204
v 0.093235 1.538076 0.022577
v 0.095862 1.584639 0.022577
v 0.093395 1.644666 0.027876
v 0.091301 1.700418 0.027876
v 0.069462 1.743287 0.027876
v 0.113777 1.342216 0.056859
v 0.135168 1.362844 0.042215
v 0.137518 1.422217 0.015680
v 0.117693 1.457559 0.003150
v 0.111735 1.559934 0.000461
v 0.111735 1.563205 0.000461
v 0.195130 1.365909 0.027250
v 0.195130 1.406689 0.012258
v 0.250881 1.365909 0.025917
v 0.250881 1.404142 0.011802
v 0.306633 1.365909 0.022342
v 0.306633 1.402703 0.010229
v 0.362384 1.365909 0.016619
v 0.362384 1.400402 0.007705
v 0.418136 1.365909 0.017529
v 0.418136 1.399945 0.007259
v 0.473887 1.326298 0.012162
v 0.529638 1.331760 0.007262
v 0.565124 1.336235 0.002388
v 0.473887 1.365909 0.019362
v 0.473887 1.399661 0.007200
v 0.529638 1.365909 0.012546
v 0.529638 1.397863 0.005284
v 0.584381 1.368766 0.003708
v 0.585390 1.395939 0.002844
v 0.627303 1.389255 0.001058
v 0.627303 1.394597 0.001058
v 0.054487 0.048836 -0.012096
v 0.054487 0.071680 -0.012096
v 0.055530 0.157739 -0.000657
v 0.054358 0.195130 -0.003443
v 0.049571 0.250881 -0.011132
v 0.042862 0.306633 -0.018349
v 0.040003 0.362384 -0.018811
v 0.044105 0.418136 -0.013582
v 0.078859 0.032566 -0.029558
v 0.065359 0.087609 -0.029558
v 0.081670 0.141647 -0.027918
v 0.085585 0.191258 -0.035861
v 0.071185 0.250881 -0.039008
v 0.065841 0.306633 -0.046225
v 0.066921 0.362384 -0.046687
v 0.074608 0.418136 -0.041458
v 0.094264 0.040813 -0.063876
v 0.095415 0.083627 -0.062943
v 0.107292 0.125555 -0.057215
v 0.105475 0.207260 -0.058339
v 0.099061 0.250881 -0.061299
v 0.093716 0.306633 -0.063940
v 0.094796 0.362384 -0.063992
v 0.102483 0.418136 -0.060583
v 0.130828 0.031956 -0.027876
v 0.142354 0.083627 -0.027876
v 0.129645 0.142235 -0.033107
v 0.133280 0.191258 -0.033107
v 0.147946 0.250881 -0.027876
v 0.156707 0.301375 -0.026175
v 0.153939 0.362384 -0.038359
v 0.147335 0.418136 -0.033568
v 0.122560 0.040813 -0.063876
v 0.121739 0.083627 -0.062943
v 0.114094 0.125555 -0.057215
v 0.116310 0.207260 -0.058339
v 0.121594 0.250881 -0.061299
v 0.126244 0.306633 -0.063940
v 0.126064 0.362384 -0.063992
v 0.119460 0.418136 -0.060583
v 0.169500 0.316454 -0.006458
v 0.171532 0.362384 -0.010484
v 0.169878 0.418136 -0.005693
v 0.049275 0.473887 -0.007832
v 0.046068 0.529638 -0.010136
v 0.035651 0.585390 -0.020025
v 0.027515 0.636965 -0.030380
v 0.021080 0.696892 -0.039717
v 0.013519 0.752644 -0.043574
v 0.006610 0.796077 -0.048860
v 0.053859 0.658636 -0.057422
v 0.048956 0.696892 -0.061967
v 0.041395 0.752644 -0.069114
v 0.026266 0.812155 -0.072098
v 0.027876 0.854333 -0.095661
v 0.027876 0.882209 -0.116947
v 0.087459 0.470485 -0.035960
v 0.083627 0.529638 -0.033181
v 0.079398 0.580101 -0.049363
v 0.057994 0.621468 -0.054212
v 0.108598 0.449632 -0.057316
v 0.095162 0.595160 -0.062715
v 0.079398 0.640488 -0.068231
v 0.083627 0.696892 -0.082914
v 0.083627 0.752644 -0.093908
v 0.083627 0.808395 -0.101492
v 0.083627 0.845563 -0.107997
v 0.083627 0.873439 -0.117187
v 0.140089 0.467087 -0.024780
v 0.144485 0.524944 -0.024023
v 0.139379 0.570539 -0.048663
v 0.113705 0.449632 -0.057316
v 0.139379 0.598415 -0.061435
v 0.139379 0.641141 -0.075037
v 0.139379 0.696892 -0.088061
v 0.139379 0.752644 -0.094407
v 0.139379 0.808395 -0.095188
v 0.135710 0.861843 -0.097143
v 0.114681 0.878891 -0.113288
v 0.167295 0.447373 -0.000070
v 0.172589 0.540399 -0.009312
v 0.176449 0.589948 -0.027888
v 0.187755 0.641141 -0.027876
v 0.195789 0.696892 -0.027876
v 0.198650 0.752644 -0.027876
v 0.197708 0.808395 -0.027876
v 0.191564 0.864147 -0.027876
v 0.167885 0.611571 -0.056366
v 0.171813 0.641141 -0.060690
v 0.177312 0.696892 -0.067113
v 0.179287 0.752644 -0.069612
v 0.178556 0.808395 -0.068808
v 0.175594 0.864147 -0.066206
v 0.049072 1.104647 -0.107022
v 0.040781 1.142904 -0.098761
v 0.025482 1.196323 -0.089966
v 0.027876 1.254407 -0.079963
v 0.027876 1.310158 -0.086960
v 0.032829 0.922189 -0.148993
v 0.054715 0.948840 -0.166727
v 0.049072 1.104647 -0.129814
v 0.027188 1.138688 -0.142235
v 0.005303 1.176185 -0.117488
v 0.032829 0.936201 -0.191237
v 0.054715 0.948840 -0.170059
v 0.027876 1.134051 -0.195130
v 0.026879 0.936282 -0.247644
v 0.044798 0.957878 -0.264069
v 0.053230 1.112576 -0.274306
v 0.031938 1.128681 -0.253786
v 0.007630 0.942434 -0.285302
v 0.026879 0.976137 -0.298721
v 0.032666 1.027470 -0.327613
v 0.042917 1.091256 -0.311576
v 0.012814 1.121099 -0.306633
v 0.017275 1.043433 -0.341004
v 0.013724 1.087152 -0.340135
v 0.001023 1.115579 -0.335515
v 0.105604 1.098929 -0.043497
v 0.101300 1.148312 -0.026098
v 0.094888 1.198655 -0.027876
v 0.101740 1.249041 -0.030150
v 0.106277 1.293554 -0.050249
v 0.097017 1.043354 -0.094310
v 0.082727 1.083204 -0.082082
v 0.070897 1.142904 -0.070885
v 0.067130 1.198655 -0.063998
v 0.071517 1.254407 -0.065092
v 0.086067 1.311346 -0.067364
v 0.083627 0.919898 -0.132748
v 0.083430 0.970714 -0.148607
v 0.093553 1.027422 -0.136158
v 0.065915 1.086499 -0.144790
v 0.055820 1.115083 -0.166982
v 0.058435 0.945610 -0.207226
v 0.072660 0.970714 -0.191237
v 0.095207 1.031401 -0.195130
v 0.079708 1.087152 -0.195130
v 0.059376 1.118195 -0.195130
v 0.058435 0.945610 -0.226902
v 0.071353 0.976137 -0.247644
v 0.090822 1.031401 -0.250881
v 0.072674 1.091256 -0.253786
v 0.060515 1.119195 -0.237139
v 0.062537 0.995046 -0.288034
v 0.067669 1.031401 -0.298863
v 0.064856 1.075408 -0.296288
v 0.166745 0.945933 -0.054902
v 0.161964 0.975650 -0.044139
v 0.147828 1.028203 -0.024671
v 0.119548 1.083068 -0.026098
v 0.113576 1.133333 -0.006330
v 0.121874 1.264047 -0.013082
v 0.140880 1.310048 -0.033278
v 0.148659 0.924369 -0.081552
v 0.137944 0.975650 -0.083627
v 0.120163 1.027422 -0.078886
v 0.112263 1.061761 -0.057142
v 0.122719 1.330722 -0.057780
v 0.116517 0.919898 -0.114860
v 0.115358 0.975650 -0.116465
v 0.113136 1.006186 -0.115428
v 0.180803 0.924369 -0.032941
v 0.175928 0.975650 -0.016264
v 0.169207 1.007487 -0.003950
v 0.195130 1.322423 -0.025597
v 0.171388 0.908765 -0.061584
v 0.246425 1.324455 -0.032995
v 0.262039 1.333474 -0.059467
v 0.310083 1.326139 -0.032098
v 0.293799 1.333474 -0.059467
v 0.362384 1.329869 -0.022451
v 0.415471 1.326960 -0.030464
v 0.432279 1.333028 -0.059728
v 0.049289 1.446729 -0.054048
v 0.045899 1.477412 -0.050603
v 0.049077 1.512749 -0.050590
v 0.028955 1.707247 -0.027765
v 0.048258 1.735178 -0.009108
v 0.027876 1.365909 -0.086636
v 0.029573 1.425551 -0.067963
v 0.018023 1.477412 -0.062302
v 0.029446 1.532065 -0.073512
v 0.027876 1.588915 -0.093609
v 0.027876 1.644666 -0.082432
v 0.027876 1.679678 -0.061938
v 0.083627 1.437358 -0.044016
v 0.086093 1.476650 -0.020966
v 0.086309 1.536342 -0.025787
v 0.105102 1.584639 -0.022892
v 0.109488 1.640592 -0.024247
v 0.089948 1.704093 -0.024760
v 0.069119 1.735178 -0.009108
v 0.083627 1.365909 -0.071919
v 0.083627 1.409482 -0.063054
v 0.066299 1.549917 -0.061161
v 0.076793 1.588915 -0.066898
v 0.088557 1.640592 -0.067290
v 0.083627 1.691992 -0.063086
v 0.159887 1.350238 -0.053473
v 0.137518 1.425849 -0.025085
v 0.117693 1.457559 -0.004640
v 0.111735 1.559934 -0.000985
v 0.111735 1.563205 -0.000985
v 0.115302 1.656459 -0.040411
v 0.115302 1.689406 -0.040411
v 0.140533 1.367657 -0.058943
v 0.139379 1.398324 -0.058219
v 0.115302 1.656459 -0.060164
v 0.115302 1.689406 -0.060164
v 0.193550 1.367657 -0.052322
v 0.193550 1.404647 -0.031844
v 0.173913 1.387406 -0.056413
v 0.173913 1.394683 -0.056413
v 0.229911 1.365909 -0.053173
v 0.249711 1.403333 -0.031844
v 0.257787 1.365909 -0.059968
v 0.267515 1.395889 -0.057658
v 0.327068 1.365909 -0.051871
v 0.308381 1.402182 -0.031699
v 0.299193 1.365909 -0.059968
v 0.290963 1.395889 -0.057658
v 0.362384 1.365909 -0.047920
v 0.362384 1.400402 -0.025470
v 0.394828 1.365909 -0.051801
v 0.413304 1.399268 -0.033278
v 0.422704 1.365909 -0.059410
v 0.428667 1.394710 -0.056652
v 0.473887 1.320142 -0.027876
v 0.473887 1.331878 -0.060868
v 0.532309 1.331094 -0.029524
v 0.515506 1.334831 -0.058597
v 0.565124 1.336235 -0.012039
v 0.473887 1.400467 -0.027876
v 0.473887 1.365909 -0.061660
v 0.473887 1.394591 -0.056543
v 0.541950 1.365909 -0.046957
v 0.525667 1.397137 -0.030342
v 0.514075 1.365909 -0.058001
v 0.504436 1.393934 -0.055906
v 0.584381 1.368766 -0.018395
v 0.585390 1.395939 -0.013964
v 0.627303 1.389255 -0.005216
v 0.627303 1.394597 -0.005216
vn -0.0466 0.0251 0.9986
vn -0.1600 -0.1430 0.9767
vn -0.0995 0.1338 0.9860
vn -0.1111 -0.1658 0.9799
vn -0.0794 0.2826 0.9559
vn -0.9945 -0.0335 0.0988
vn -0.9708 -0.0000 0.2398
vn -0.6717 -0.1420 0.7271
vn -0.9908 -0.0413 0.1290
vn -0.7935 -0.1962 0.5760
vn -0.8042 -0.1746 0.5681
vn -0.7455 -0.2429 0.6206
vn -0.9617 -0.1484 0.2306
vn -0.8371 -0.2121 0.5042
vn -0.0000 -0.0000 1.0000
vn 0.0404 -0.9661 0.2549
vn 0.8981 -0.0000 0.4398
vn 0.0420 0.9660 0.2549
vn -0.0000 -0.1259 0.9920
vn 0.0151 -0.1028 0.9946
vn -0.0962 -0.1871 0.9776
vn -0.1800 -0.2823 0.9423
vn -0.0892 -0.7244 0.6836
vn -0.0717 -0.9879 0.1372
vn -0.0595 0.8989 0.4341
vn 0.0225 0.1902 0.9815
vn -0.0068 -0.2442 0.9697
vn -0.0404 -0.8299 0.5565
vn 0.6165 -0.2597 0.7433
vn 0.5799 -0.1912 0.7919
vn 0.6007 -0.0000 0.7994
vn 0.5125 -0.2092 0.8328
vn 0.5391 -0.2173 0.8137
vn 0.6340 -0.7592 0.1472
vn 0.9997 -0.0000 0.0247
vn 0.6575 0.6510 0.3793
vn 0.7375 -0.1576 0.6567
vn 0.8285 -0.2348 0.5084
vn 0.9194 -0.1741 0.3528
vn 0.7467 -0.2291 0.6244
vn 0.9154 -0.1933 0.3531
vn 0.9504 -0.1171 0.2880
vn -0.9997 0.0077 0.0240
vn -0.9980 -0.0591 0.0204
vn -0.9787 -0.1429 0.1471
vn -0.9568 -0.0997 0.2730
vn -0.9423 -0.0450 0.3317
vn -0.9310 0.0026 0.3650
vn -0.9208 0.0402 0.3879
vn -0.9149 0.1057 0.3896
vn -0.6823 -0.1889 0.7062
vn -0.7552 -0.1320 0.6421
vn -0.6819 -0.0667 0.7284
vn -0.8363 -0.0747 0.5431
vn -0.6147 -0.0411 0.7877
vn -0.8300 -0.0802 0.5520
vn -0.5500 -0.0604 0.8330
vn -0.8160 -0.0709 0.5736
vn -0.5335 -0.0026 0.8458
vn -0.8069 -0.0135 0.5905
vn -0.5343 0.0440 0.8441
vn -0.7826 0.0371 0.6215
vn -0.5440 0.0975 0.8334
vn -0.7419 0.0861 0.6650
vn -0.5600 0.1519 0.8145
vn -0.6755 0.1523 0.7215
vn -0.9577 -0.0600 -0.2814
vn -0.0000 -0.1246 0.9922
vn -0.0000 -0.0145 0.9999
vn -0.0000 0.0169 0.9999
vn 0.0119 -0.0194 0.9997
vn -0.0261 -0.0444 0.9987
vn -0.0944 0.0095 0.9955
vn -0.1134 0.0599 0.9917
vn -0.1184 0.0878 0.9891
vn 0.4426 -0.2147 0.8707
vn 0.4244 -0.0632 0.9033
vn 0.3703 -0.0041 0.9289
vn 0.3628 -0.0423 0.9309
vn -0.3674 0.1421 0.9192
vn 0.3173 -0.0626 0.9462
vn 0.2781 -0.0218 0.9603
vn 0.2137 0.0298 0.9764
vn 0.0670 0.0349 0.9971
vn 0.6271 -0.1973 0.7535
vn 0.6754 -0.1288 0.7261
vn 0.5828 -0.0825 0.8084
vn 0.4893 -0.0369 0.8713
vn 0.4364 -0.0931 0.8949
vn 0.5226 -0.0865 0.8482
vn 0.5260 -0.0471 0.8492
vn 0.4844 -0.0368 0.8741
vn 0.3954 -0.1610 0.9043
vn 0.9883 -0.0205 0.1509
vn 0.9736 -0.2130 0.0826
vn -0.9118 0.1434 0.3849
vn -0.6413 0.1762 0.7468
vn -0.7729 0.2169 0.5963
vn -0.6807 0.2798 0.6770
vn -0.8580 0.2623 0.4416
vn -0.7567 0.3326 0.5628
vn -0.7894 0.3614 0.4963
vn -0.8313 0.2383 0.5021
vn -0.1630 0.1049 0.9810
vn -0.5736 0.2191 0.7893
vn -0.2582 0.1355 0.9566
vn -0.5503 0.2138 0.8071
vn -0.4739 0.1272 0.8714
vn -0.5745 0.2430 0.7816
vn -0.6384 0.0890 0.7645
vn -0.6663 0.1596 0.7284
vn -0.8119 0.0270 0.5832
vn -0.7150 0.2364 0.6580
vn -0.9756 0.1696 0.1395
vn -0.8529 0.0708 0.5173
vn -0.8556 -0.0370 0.5163
vn -0.7534 -0.1689 0.6355
vn -0.7717 -0.3487 0.5319
vn -0.6378 -0.1632 0.7527
vn -0.0506 0.0058 0.9987
vn -0.1332 0.0477 0.9899
vn -0.1820 0.0140 0.9832
vn -0.1647 0.0457 0.9853
vn -0.4631 0.2001 0.8634
vn -0.1931 0.1233 0.9734
vn -0.5175 0.1656 0.8395
vn -0.4666 0.0474 0.8832
vn -0.4672 -0.0131 0.8841
vn -0.3025 0.0043 0.9531
vn -0.4750 -0.0113 0.8799
vn 0.0352 -0.1831 0.9825
vn 0.0141 0.3144 0.9492
vn 0.0233 -0.1981 0.9799
vn 0.0029 0.2700 0.9628
vn -0.0840 -0.2306 0.9694
vn -0.0764 0.2823 0.9563
vn -0.0531 -0.2628 0.9634
vn -0.0478 0.3296 0.9429
vn -0.0241 -0.2726 0.9618
vn -0.0231 0.3456 0.9381
vn -0.6701 -0.1114 0.7338
vn -0.2754 -0.2216 0.9354
vn -0.1818 0.3730 0.9099
vn -0.4530 0.0743 0.8884
vn -0.4573 0.2205 0.8615
vn -0.4990 0.3542 0.7909
vn -0.4349 0.3670 0.8223
vn -0.5295 0.3618 0.7673
vn -0.7938 -0.1344 0.5931
vn -0.8175 -0.0316 0.5750
vn -0.7839 -0.0435 0.6194
vn -0.8233 0.0471 0.5657
vn -0.8548 0.0831 0.5122
vn -0.3637 0.1470 0.9199
vn -0.4371 0.1445 0.8878
vn -0.3228 0.3291 0.8874
vn -0.4963 -0.3035 0.8134
vn -0.6749 0.0119 0.7378
vn -0.5803 -0.0022 0.8144
vn -0.5249 0.0709 0.8482
vn -0.4351 0.0960 0.8953
vn -0.3505 0.4975 0.7935
vn -0.6953 0.0015 0.7187
vn -0.3781 0.1919 0.9057
vn -0.5299 -0.3873 0.7545
vn -0.6313 0.3264 0.7035
vn -0.4211 0.7103 0.5640
vn -0.5152 0.7239 0.4589
vn -0.1358 -0.9905 0.0200
vn -0.1469 -0.9848 0.0926
vn -0.1341 -0.9524 -0.2737
vn -1.0000 -0.0000 -0.0000
vn -0.8605 -0.5094 -0.0000
vn -0.4308 -0.9025 -0.0000
vn -0.2218 0.1249 -0.9671
vn -0.0320 0.9995 -0.0000
vn -0.4964 -0.4707 -0.7294
vn -0.3639 0.3986 -0.8419
vn -0.0290 0.9995 -0.0160
vn -0.6319 -0.2649 -0.7284
vn -0.5132 0.4544 -0.7281
vn -0.0476 0.9989 -0.0015
vn -0.0723 -0.0014 -0.9974
vn -0.0613 0.1362 -0.9888
vn -0.0435 0.9824 -0.1815
vn -0.9991 -0.0430 0.0026
vn -0.9993 0.0050 -0.0370
vn -0.9897 -0.1378 0.0399
vn -0.9882 0.1499 0.0315
vn -0.9982 -0.0524 -0.0292
vn -0.9649 -0.2602 -0.0339
vn -0.9800 -0.1836 -0.0772
vn -0.8281 -0.5574 -0.0593
vn -0.8509 -0.0730 -0.5202
vn -0.8067 0.1096 -0.5807
vn -0.9173 -0.1001 -0.3853
vn -0.8192 0.1686 -0.5482
vn -0.7786 -0.1370 -0.6124
vn -0.7737 -0.1032 -0.6251
vn -0.7327 -0.0526 -0.6786
vn -0.6804 0.1336 -0.7205
vn -0.0842 -0.9881 -0.1288
vn 0.9821 0.1733 0.0741
vn 0.0265 -0.0767 -0.9967
vn 0.0024 -0.9716 -0.2366
vn 0.8233 -0.0980 -0.5590
vn -0.0000 0.0218 -0.9998
vn 0.6816 0.2529 -0.6867
vn -0.0000 0.1354 -0.9908
vn 0.0594 0.8458 -0.5302
vn -0.0246 -0.8317 -0.5546
vn 0.6655 -0.1623 -0.7285
vn -0.0000 -0.0677 -0.9977
vn 0.6247 -0.1238 -0.7710
vn -0.0000 -0.0473 -0.9989
vn 0.5761 -0.0036 -0.8174
vn -0.0000 -0.0009 -1.0000
vn 0.5659 0.1382 -0.8128
vn -0.0000 0.0610 -0.9981
vn 0.6335 -0.7695 -0.0805
vn 1.0000 -0.0000 -0.0039
vn 0.6991 -0.1209 -0.7048
vn 0.7746 0.6295 0.0609
vn 0.5847 -0.8072 -0.0809
vn 0.9996 -0.0289 -0.0000
vn 0.7299 -0.0577 -0.6811
vn 0.9985 -0.0549 -0.0000
vn 0.7601 -0.1513 -0.6320
vn 0.9949 -0.1011 0.0058
vn 0.8027 -0.1490 -0.5774
vn 0.9846 -0.1513 -0.0875
vn 0.7729 -0.0423 -0.6331
vn 0.9622 0.0088 -0.2721
vn 0.7064 0.1313 -0.6956
vn -0.9900 0.0604 -0.1274
vn -0.9680 -0.1671 -0.1874
vn -0.9699 -0.1738 -0.1703
vn -0.9895 -0.1055 -0.0989
vn -0.9986 -0.0312 -0.0423
vn -0.9996 0.0248 -0.0144
vn -0.9933 0.1158 -0.0002
vn -0.8868 -0.1898 -0.4215
vn -0.8943 -0.1331 -0.4272
vn -0.9049 -0.0487 -0.4229
vn -0.9063 0.0166 -0.4222
vn -0.9110 0.0838 -0.4037
vn -0.7474 0.2114 -0.6299
vn -0.8437 0.0554 -0.5340
vn -0.7390 -0.0355 -0.6728
vn -0.8021 -0.2966 -0.5184
vn -0.5802 -0.3318 -0.7438
vn -0.6903 0.2165 -0.6904
vn -0.5196 -0.4921 -0.6984
vn -0.3418 -0.2436 -0.9077
vn -0.4414 -0.1753 -0.8800
vn -0.5051 -0.0771 -0.8596
vn -0.5433 0.0037 -0.8396
vn -0.5857 0.0404 -0.8095
vn -0.1282 0.0431 -0.9908
vn 0.0130 -0.4149 -0.9098
vn 0.5937 0.2275 -0.7719
vn -0.0000 0.1032 -0.9947
vn -0.1356 0.8137 -0.5652
vn 0.0265 -0.5310 -0.8470
vn 0.3963 -0.3137 -0.8629
vn 0.0284 -0.2332 -0.9720
vn 0.0748 -0.2346 -0.9692
vn 0.0488 -0.1320 -0.9901
vn -0.0273 -0.0711 -0.9971
vn -0.1521 -0.0973 -0.9836
vn -0.2369 -0.3846 -0.8922
vn 0.8945 0.1040 -0.4347
vn 0.6325 0.2133 -0.7446
vn 0.7929 -0.1155 -0.5983
vn 0.5933 -0.0093 -0.8049
vn 0.6671 -0.3206 -0.6725
vn 0.5537 -0.3113 -0.7723
vn 0.6453 -0.3006 -0.7023
vn 0.6174 -0.3654 -0.6967
vn 0.5741 -0.2048 -0.7927
vn 0.6595 -0.1692 -0.7324
vn 0.4678 -0.1661 -0.8681
vn 0.6476 -0.1155 -0.7532
vn 0.5058 -0.1236 -0.8538
vn 0.6539 -0.1970 -0.7305
vn 0.4828 -0.1397 -0.8645
vn 0.3588 -0.3401 -0.8693
vn 0.1710 -0.4633 -0.8696
vn 0.0769 -0.9929 0.0902
vn 0.0716 -0.9536 -0.2923
vn 0.0434 -0.9989 0.0152
vn -0.0640 -0.9979 0.0088
vn -0.0318 -0.9995 0.0048
vn -0.0196 -0.9566 -0.2908
vn -0.9840 0.1782 0.0079
vn -0.9959 0.0902 0.0048
vn -0.9784 0.2066 -0.0000
vn -0.0381 -0.9993 -0.0016
vn -0.9169 0.1293 -0.3776
vn -0.8869 0.2396 -0.3950
vn -0.8196 0.3680 -0.4392
vn -0.6795 0.7333 0.0240
vn -0.9082 0.4182 -0.0190
vn -0.9915 0.1293 -0.0129
vn -0.9391 -0.3406 0.0450
vn -0.2151 -0.9766 0.0086
vn -0.6398 0.0917 -0.7630
vn -0.8174 0.1993 -0.5405
vn -0.7913 0.2129 -0.5732
vn -0.8172 0.3553 -0.4537
vn -0.7954 0.4217 -0.4353
vn -0.6813 0.0018 -0.7320
vn -0.7668 0.0631 -0.6387
vn -0.8638 0.2410 -0.4424
vn -0.8763 0.2451 -0.4148
vn -0.8829 0.4612 -0.0881
vn -0.9814 0.0727 -0.1777
vn -0.9834 -0.0788 -0.1634
vn -0.6700 -0.7405 -0.0525
vn -0.6434 -0.4447 -0.6231
vn -0.7221 0.4547 -0.5214
vn -0.7886 0.3314 -0.5179
vn -0.7810 0.2639 -0.5660
vn -0.8041 0.1053 -0.5851
vn -0.7670 -0.1012 -0.6336
vn -0.6248 -0.2784 -0.7294
vn -0.4832 -0.3742 -0.7915
vn -0.3075 -0.1911 -0.9322
vn -0.6059 -0.1269 -0.7853
vn -0.7220 0.0413 -0.6907
vn -0.7664 0.5347 -0.3561
vn -0.8952 0.3874 -0.2204
vn -0.9607 -0.2603 -0.0964
vn -0.9225 0.3575 0.1455
vn -0.8373 0.5051 0.2093
vn -0.8953 -0.4429 -0.0469
vn -0.9370 -0.3435 -0.0642
vn -0.9572 0.2764 -0.0856
vn -0.8724 0.4880 -0.0263
vn -0.8770 -0.2938 -0.3801
vn -0.9195 0.1845 -0.3471
vn -0.6664 0.2746 -0.6932
vn -0.5817 0.2143 -0.7846
vn -0.4304 0.0451 -0.9015
vn -0.3196 -0.1185 -0.9401
vn -0.0801 -0.4939 -0.8658
vn -0.4464 -0.4695 -0.7618
vn -0.6256 0.7745 -0.0932
vn -0.9066 0.3664 -0.2093
vn -0.7736 0.5595 0.2975
vn -0.7170 0.4798 -0.5057
vn -0.6588 -0.7197 -0.2193
vn -0.6487 -0.7503 0.1275
vn -0.6700 -0.7256 -0.1569
vn -0.5524 0.8335 0.0132
vn -0.3148 -0.9488 -0.0256
vn -0.5991 -0.6698 -0.4386
vn -0.6542 0.7120 -0.2550
vn -0.3932 0.9192 -0.0196
vn -0.5617 -0.6528 -0.5084
vn -0.5937 -0.6167 -0.5169
vn -0.5419 -0.4018 -0.7382
vn -0.6208 0.0919 -0.7785
vn -0.7790 0.4813 -0.4018
vn -0.4880 0.7718 -0.4075
vn -0.6933 0.0703 -0.7172
vn -0.6313 0.5533 -0.5435
vn 0.0080 1.0000 0.0022
vn 0.5361 -0.4369 -0.7223
vn 0.0367 -0.0123 -0.9993
vn 0.4886 0.4485 -0.7484
vn 0.0218 0.1379 -0.9902
vn -0.0002 0.9805 -0.1965
vn 0.1332 -0.5508 -0.8239
vn 0.1101 0.5359 -0.8371
vn -0.0141 0.9998 -0.0101
vn -0.1515 -0.5313 -0.8335
vn -0.1061 0.5336 -0.8391
vn -0.0374 0.9993 -0.0061
vn -0.5406 -0.3785 -0.7513
vn -0.4948 0.4527 -0.7417
vn -0.0224 0.9996 -0.0154
vn 0.5177 -0.3624 -0.7750
vn -0.0000 -0.0155 -0.9999
vn 0.4622 0.4669 -0.7540
vn -0.0000 0.0768 -0.9970
vn -0.0140 0.9665 -0.2563
vn 0.0802 -0.4872 -0.8696
vn -0.0082 0.4881 -0.8727
vn -0.0344 0.9988 -0.0335
vn -0.6085 0.3331 -0.7202
vn -0.2540 -0.5049 -0.8249
vn -0.3085 0.9512 0.0121
vn -0.8621 0.5054 0.0378
vn -0.3037 -0.3862 -0.8710
vn -0.1230 -0.1243 -0.9846
vn -0.0588 0.0208 -0.9981
vn -0.1870 0.7964 -0.5751
vn -0.4775 0.5423 -0.6914
vn -0.5116 0.8591 0.0098
vn -0.9957 -0.0876 -0.0313
vn -0.7125 -0.6975 -0.0763
vn -0.7714 -0.1743 -0.6120
vn -0.8354 0.5442 0.0769
vn -0.9872 0.1139 0.1113
vn -0.9753 0.2077 0.0749
vn -0.9747 0.2228 0.0195
vn -0.2549 -0.1029 -0.9615
vn -0.1652 0.1288 -0.9778
vn -0.2868 0.6618 -0.6926
vn -0.8061 -0.1649 -0.5683
vn -0.8284 -0.0023 -0.5601
vn -0.8660 0.1877 -0.4635
vn -0.4765 0.3232 -0.8176
vn -0.5813 -0.0594 -0.8115
vn 0.4996 0.7784 -0.3801
vn -0.0446 0.4932 -0.8688
vn -0.0166 0.9997 -0.0167
vn -0.2885 -0.0304 -0.9570
vn -0.2056 0.2491 -0.9464
vn -0.2746 0.4577 -0.8456
vn -0.4076 0.1782 -0.8956
vn -0.5368 -0.1861 -0.8229
vn -0.5887 -0.4674 -0.6595
vn -0.4687 -0.1860 -0.8636
vn -0.4417 0.0494 -0.8958
vn -0.1743 0.2631 -0.9489
vn -0.0498 0.8380 -0.5433
vn -0.9997 -0.0000 0.0247
vn -0.9366 -0.1739 0.3041
vn -0.9218 -0.1427 0.3603
vn -0.9496 -0.0801 0.3030
vn -0.8981 -0.0000 0.4398
vn -0.6007 -0.0000 0.7994
vn -0.3939 -0.1710 0.9031
vn -0.4626 -0.1712 0.8699
vn -0.5235 -0.1822 0.8323
vn -0.6340 -0.7592 0.1472
vn -0.6575 0.6510 0.3793
vn -0.7369 -0.1621 0.6563
vn -0.5255 -0.3438 0.7782
vn -0.8069 -0.3419 0.4816
vn -0.7161 -0.3366 0.6114
vn -0.0404 -0.9661 0.2549
vn 0.9708 -0.0000 0.2398
vn -0.0420 0.9660 0.2549
vn -0.0133 -0.1177 0.9930
vn 0.0512 -0.1756 0.9831
vn 0.1860 -0.1553 0.9702
vn 0.2093 -0.2619 0.9421
vn 0.0975 -0.7161 0.6911
vn 0.0717 -0.9879 0.1372
vn 0.9908 -0.0413 0.1290
vn 0.0595 0.8989 0.4341
vn -0.0225 0.1902 0.9815
vn 0.0089 -0.2463 0.9692
vn 0.0424 -0.8286 0.5582
vn 0.7935 -0.1962 0.5760
vn 0.8042 -0.1746 0.5681
vn 0.7455 -0.2429 0.6206
vn 0.6717 -0.1420 0.7271
vn 0.9617 -0.1484 0.2306
vn 0.8371 -0.2121 0.5042
vn 0.9945 -0.0335 0.0988
vn -0.0489 -0.2414 0.9692
vn -0.5820 -0.0783 0.8094
vn -0.0128 -0.0283 0.9995
vn -0.5892 -0.0721 0.8048
vn 0.0307 -0.0214 0.9993
vn -0.5705 -0.0124 0.8212
vn -0.0000 -0.0255 0.9997
vn -0.4994 -0.0130 0.8663
vn -0.0000 -0.0571 0.9984
vn -0.3954 -0.1610 0.9043
vn -0.0000 -0.1342 0.9910
vn -0.0000 -0.4613 0.8872
vn -0.9827 -0.0295 0.1826
vn -0.9695 -0.2074 0.1306
vn -0.0000 -1.0000 -0.0000
vn -0.0000 -0.3180 -0.9481
vn -0.0000 -0.1739 -0.9848
vn -0.2931 -0.0799 0.9527
vn -0.2865 -0.0460 0.9570
vn -0.2593 0.0136 0.9657
vn -0.2092 0.0546 0.9763
vn -0.0670 0.0349 0.9971
vn -0.4264 -0.2083 0.8802
vn -0.6173 -0.1895 0.7636
vn -0.4119 -0.0621 0.9091
vn -0.6705 -0.1244 0.7314
vn -0.3724 -0.0336 0.9275
vn -0.6012 -0.1171 0.7905
vn -0.4295 -0.1137 0.8959
vn -0.0061 0.0217 0.9997
vn 0.0439 -0.0746 0.9962
vn 0.1157 -0.0191 0.9931
vn 0.1381 0.0256 0.9901
vn 0.1274 0.0715 0.9893
vn 0.1184 0.0878 0.9891
vn 0.6823 -0.1889 0.7062
vn 0.6819 -0.0667 0.7284
vn 0.6147 -0.0411 0.7877
vn 0.5500 -0.0604 0.8330
vn 0.5335 -0.0026 0.8458
vn 0.5343 0.0440 0.8441
vn 0.5440 0.0975 0.8334
vn 0.5600 0.1519 0.8145
vn 0.3674 0.1421 0.9192
vn 0.7552 -0.1320 0.6421
vn 0.8363 -0.0747 0.5431
vn 0.8300 -0.0802 0.5520
vn 0.8160 -0.0709 0.5736
vn 0.8069 -0.0135 0.5905
vn 0.7826 0.0371 0.6215
vn 0.7419 0.0861 0.6650
vn 0.6755 0.1523 0.7215
vn 0.9997 0.0077 0.0240
vn 0.9980 -0.0591 0.0204
vn 0.9584 -0.0600 -0.2792
vn 0.9787 -0.1429 0.1471
vn 0.9568 -0.0997 0.2730
vn 0.9423 -0.0450 0.3317
vn 0.9310 0.0026 0.3650
vn 0.9208 0.0402 0.3879
vn 0.9149 0.1057 0.3896
vn -0.0000 -0.0442 0.9990
vn -0.0000 0.0279 0.9996
vn -0.0000 0.0043 1.0000
vn -0.0000 0.0644 0.9979
vn -0.0000 0.0378 0.9993
vn -0.0000 0.0047 1.0000
vn 0.1931 0.1233 0.9734
vn -0.0000 0.3392 0.9407
vn -0.0000 0.0611 0.9981
vn -0.0000 -0.0458 0.9990
vn -0.0000 -0.4013 0.9160
vn 0.3024 0.0043 0.9532
vn 0.0506 0.0058 0.9987
vn 0.1332 0.0477 0.9899
vn 0.1820 0.0140 0.9832
vn 0.1647 0.0457 0.9853
vn 0.1630 0.1049 0.9810
vn 0.2582 0.1355 0.9566
vn 0.4739 0.1272 0.8714
vn 0.6384 0.0890 0.7645
vn 0.4631 0.2001 0.8634
vn 0.5175 0.1656 0.8395
vn 0.4666 0.0473 0.8832
vn 0.4672 -0.0131 0.8841
vn 0.4750 -0.0114 0.8799
vn 0.7150 0.2364 0.6580
vn 0.8529 0.0708 0.5173
vn 0.8556 -0.0370 0.5163
vn 0.7534 -0.1689 0.6355
vn 0.5736 0.2191 0.7893
vn 0.5503 0.2138 0.8071
vn 0.5745 0.2430 0.7816
vn 0.6663 0.1596 0.7284
vn 0.6807 0.2798 0.6770
vn 0.7567 0.3326 0.5628
vn 0.8313 0.2383 0.5021
vn 0.8119 0.0270 0.5832
vn 0.9756 0.1696 0.1395
vn 0.7717 -0.3487 0.5319
vn 0.6378 -0.1633 0.7527
vn 0.6413 0.1762 0.7468
vn 0.9118 0.1434 0.3849
vn 0.7729 0.2169 0.5963
vn 0.8580 0.2623 0.4416
vn 0.7894 0.3614 0.4963
vn -0.0000 0.0290 0.9996
vn 0.3636 0.1469 0.9199
vn -0.0001 0.5536 0.8328
vn -0.0001 0.4179 0.9085
vn -0.0000 0.0028 1.0000
vn -0.0035 -0.4238 0.9058
vn -0.0052 -0.6767 0.7362
vn 0.6684 0.0131 0.7437
vn -0.0040 0.6857 0.7279
vn -0.0513 0.1235 0.9910
vn -0.1686 0.0901 0.9816
vn -0.1777 0.3668 0.9132
vn 0.6954 0.0015 0.7187
vn -0.1100 0.6820 -0.7230
vn -0.1575 0.9873 0.0211
vn 0.4371 0.1444 0.8878
vn 0.3228 0.3291 0.8874
vn 0.4933 -0.3128 0.8116
vn 0.5751 -0.0003 0.8181
vn 0.5114 -0.0106 0.8593
vn 0.4200 -0.0187 0.9073
vn 0.2818 0.3183 0.9051
vn 0.4992 0.3542 0.7908
vn 0.3505 0.4976 0.7935
vn 0.3781 0.1919 0.9057
vn 0.5299 -0.3873 0.7545
vn 0.7940 -0.1444 0.5905
vn 0.8214 -0.0293 0.5696
vn 0.8258 -0.0366 0.5627
vn 0.8608 -0.0008 0.5089
vn 0.8689 0.3353 0.3641
vn 0.1053 0.9933 0.0473
vn 0.4531 0.0743 0.8883
vn 0.6702 -0.1114 0.7338
vn 0.4574 0.2205 0.8615
vn 0.4350 0.3670 0.8222
vn 0.5295 0.3618 0.7673
vn 0.7891 -0.0416 0.6128
vn 0.2754 -0.2215 0.9355
vn 0.1818 0.3730 0.9098
vn 0.0241 -0.2725 0.9618
vn 0.0229 0.3456 0.9381
vn 0.0531 -0.2628 0.9634
vn 0.0478 0.3296 0.9429
vn 0.0844 -0.2307 0.9694
vn 0.0765 0.2821 0.9563
vn -0.0233 -0.1981 0.9799
vn -0.0029 0.2696 0.9630
vn -0.0355 -0.1831 0.9824
vn -0.0143 0.3141 0.9493
vn 0.1111 -0.1658 0.9799
vn 0.0794 0.2826 0.9559
vn 0.1600 -0.1430 0.9767
vn 0.0995 0.1338 0.9860
vn 0.0466 0.0251 0.9986
vn -1.0000 -0.0000 -0.0039
vn -0.9995 -0.0313 -0.0000
vn -0.9965 -0.0835 0.0065
vn -0.9839 -0.1700 -0.0550
vn -0.9798 -0.1037 -0.1710
vn -0.9527 0.0354 -0.3020
vn -0.6335 -0.7695 -0.0804
vn -0.6993 -0.1212 -0.7045
vn -0.7748 0.6292 0.0612
vn -0.9820 0.1735 0.0746
vn -0.5848 -0.8071 -0.0806
vn -0.7297 -0.0610 -0.6810
vn -0.7450 -0.1841 -0.6411
vn -0.7705 -0.1631 -0.6163
vn -0.7450 -0.0174 -0.6668
vn -0.6898 0.1396 -0.7104
vn -0.8233 -0.0985 -0.5590
vn -0.6817 0.2529 -0.6865
vn -0.6419 -0.1736 -0.7469
vn -0.5783 -0.1267 -0.8059
vn -0.5319 0.0064 -0.8468
vn -0.5417 0.1389 -0.8290
vn 0.0843 -0.9881 -0.1288
vn 0.9897 -0.1378 0.0399
vn 0.9882 0.1499 0.0315
vn 0.9982 -0.0524 -0.0292
vn -0.0249 -0.0784 -0.9966
vn 0.9649 -0.2602 -0.0339
vn 0.9800 -0.1836 -0.0772
vn -0.0024 -0.9716 -0.2366
vn 0.9173 -0.1001 -0.3853
vn 0.8192 0.1686 -0.5482
vn -0.0593 0.8458 -0.5302
vn 0.0262 -0.8309 -0.5558
vn 0.7786 -0.1370 -0.6124
vn 0.7737 -0.1032 -0.6251
vn 0.7327 -0.0526 -0.6786
vn 0.6804 0.1336 -0.7205
vn 0.8281 -0.5574 -0.0593
vn 0.9991 -0.0430 0.0026
vn 0.8509 -0.0730 -0.5202
vn 0.9993 0.0050 -0.0370
vn 0.8067 0.1096 -0.5807
vn -0.8971 0.0753 -0.4353
vn -0.8153 -0.1302 -0.5642
vn -0.7074 -0.2874 -0.6458
vn -0.6642 -0.2550 -0.7027
vn 0.0241 -0.8385 -0.5444
vn 0.0015 -0.1528 -0.9883
vn -0.0000 -0.0690 -0.9976
vn -0.0000 -0.1208 -0.9927
vn -0.6215 -0.1796 -0.7626
vn -0.6423 -0.1611 -0.7493
vn -0.6678 -0.2005 -0.7168
vn -0.0108 -0.8148 -0.5796
vn -0.0177 -0.4899 -0.8716
vn -0.0191 -0.6033 -0.7973
vn -0.6159 0.1824 -0.7664
vn -0.5605 -0.0309 -0.8276
vn -0.5338 -0.2703 -0.8013
vn -0.6094 -0.3129 -0.7285
vn -0.5673 0.2115 -0.7959
vn -0.3946 -0.2740 -0.8770
vn -0.5781 -0.1338 -0.8049
vn -0.5002 -0.1758 -0.8479
vn -0.5036 -0.1719 -0.8467
vn -0.4772 -0.1422 -0.8672
vn -0.3588 -0.3244 -0.8752
vn -0.1718 -0.4725 -0.8644
vn 0.7406 -0.0359 -0.6710
vn 0.1783 0.0289 -0.9835
vn 0.0293 -0.3885 -0.9210
vn 0.6897 0.2151 -0.6914
vn 0.1597 0.7972 -0.5822
vn -0.0149 -0.5157 -0.8566
vn -0.0435 -0.2194 -0.9747
vn -0.0985 -0.2352 -0.9669
vn -0.0500 -0.1535 -0.9869
vn 0.0518 -0.0747 -0.9959
vn 0.1690 -0.0848 -0.9820
vn 0.2571 -0.3806 -0.8883
vn 0.9900 0.0604 -0.1274
vn 0.7483 0.2100 -0.6292
vn 0.8447 0.0542 -0.5326
vn 0.8035 -0.2952 -0.5170
vn 0.9680 -0.1671 -0.1874
vn 0.5815 -0.3301 -0.7436
vn 0.9699 -0.1738 -0.1703
vn 0.9895 -0.1055 -0.0989
vn 0.9986 -0.0312 -0.0423
vn 0.9996 0.0248 -0.0144
vn 0.9933 0.1158 -0.0002
vn 0.5196 -0.4921 -0.6984
vn 0.8868 -0.1898 -0.4215
vn 0.3418 -0.2436 -0.9077
vn 0.8943 -0.1331 -0.4272
vn 0.4414 -0.1753 -0.8800
vn 0.9049 -0.0487 -0.4229
vn 0.5051 -0.0771 -0.8596
vn 0.9063 0.0166 -0.4222
vn 0.5433 0.0037 -0.8396
vn 0.9110 0.0838 -0.4037
vn 0.5857 0.0404 -0.8095
vn -0.0001 0.1698 -0.9855
vn -0.0002 -0.1245 -0.9922
vn -0.0143 -0.6309 -0.7758
vn 0.9066 0.3664 -0.2093
vn 0.7170 0.4798 -0.5057
vn -0.0000 0.5508 -0.8346
vn -0.0000 0.8070 -0.5905
vn -0.0021 -0.9496 -0.3134
vn 0.6611 -0.7172 -0.2205
vn -0.0000 0.9962 -0.0873
vn -0.0013 -1.0000 -0.0014
vn -0.0000 0.9958 -0.0912
vn -0.0011 -0.9871 -0.1603
vn 0.5618 -0.6522 -0.5089
vn -0.0000 -0.3699 -0.9291
vn -0.0000 -0.4905 -0.8715
vn 0.4884 0.7719 -0.4071
vn -0.0000 0.9899 -0.1420
vn -0.0000 -0.6427 -0.7661
vn 0.6934 0.0696 -0.7172
vn -0.0000 0.0199 -0.9998
vn 0.6316 0.5531 -0.5433
vn -0.0000 0.1604 -0.9870
vn -0.0000 0.9822 -0.1877
vn 0.9814 0.0727 -0.1777
vn 0.9834 -0.0788 -0.1634
vn 0.7810 0.2639 -0.5660
vn 0.6664 0.2746 -0.6932
vn 0.8041 0.1053 -0.5851
vn 0.5817 0.2143 -0.7846
vn 0.7671 -0.1013 -0.6335
vn 0.4304 0.0449 -0.9015
vn 0.6250 -0.2784 -0.7293
vn 0.3196 -0.1186 -0.9401
vn 0.0806 -0.4844 -0.8711
vn 0.4453 -0.4582 -0.7692
vn 0.8952 0.3874 -0.2204
vn 0.6256 0.7745 -0.0932
vn 0.7736 0.5595 0.2975
vn 0.6493 -0.7493 0.1301
vn 0.6700 -0.7256 -0.1570
vn 0.9607 -0.2603 -0.0964
vn 0.9225 0.3575 0.1455
vn 0.8373 0.5051 0.2093
vn 0.5524 0.8335 0.0132
vn 0.3133 -0.9493 -0.0255
vn 0.8962 -0.4413 -0.0468
vn 0.5991 -0.6686 -0.4405
vn 0.9370 -0.3435 -0.0642
vn 0.9572 0.2764 -0.0856
vn 0.8724 0.4880 -0.0263
vn 0.6542 0.7120 -0.2550
vn 0.3932 0.9192 -0.0196
vn 0.5937 -0.6167 -0.5169
vn 0.8770 -0.2938 -0.3801
vn 0.5419 -0.4018 -0.7382
vn 0.9195 0.1845 -0.3471
vn 0.6211 0.0915 -0.7783
vn 0.7794 0.4811 -0.4013
vn 0.9082 0.4182 -0.0190
vn 0.9915 0.1293 -0.0129
vn 0.8763 0.2451 -0.4148
vn 0.8829 0.4612 -0.0881
vn 0.6701 -0.7404 -0.0525
vn 0.9391 -0.3406 0.0450
vn 0.6434 -0.4447 -0.6231
vn 0.7913 0.2129 -0.5732
vn 0.8172 0.3553 -0.4537
vn 0.7954 0.4217 -0.4353
vn 0.7221 0.4547 -0.5214
vn 0.7886 0.3314 -0.5179
vn 0.4833 -0.3742 -0.7915
vn 0.6813 0.0018 -0.7320
vn 0.3311 -0.1881 -0.9247
vn 0.7668 0.0631 -0.6387
vn 0.6123 -0.1203 -0.7814
vn 0.8638 0.2410 -0.4424
vn 0.7220 0.0414 -0.6907
vn 0.7664 0.5347 -0.3561
vn 0.9840 0.1782 0.0079
vn 0.9959 0.0902 0.0048
vn 0.8869 0.2396 -0.3950
vn 0.9784 0.2066 -0.0000
vn 0.8196 0.3680 -0.4392
vn 0.6795 0.7333 0.0240
vn 0.2151 -0.9766 0.0086
vn 0.9169 0.1293 -0.3776
vn 0.6398 0.0917 -0.7630
vn 0.8174 0.1993 -0.5405
vn 0.0381 -0.9993 -0.0016
vn 0.0318 -0.9995 0.0048
vn 0.0196 -0.9566 -0.2908
vn 0.0643 -0.9979 0.0088
vn -0.0434 -0.9989 0.0153
vn -0.0135 0.9357 -0.3525
vn -0.5194 0.7001 -0.4901
vn -0.0002 0.0058 -1.0000
vn -0.0001 0.2988 -0.9543
vn 0.4062 0.1725 -0.8974
vn -0.0000 0.1085 -0.9941
vn 0.5271 -0.1886 -0.8286
vn -0.0012 -0.2000 -0.9798
vn -0.0308 -0.3080 -0.9509
vn -0.0422 0.1770 -0.9833
vn 0.0029 0.4781 -0.8783
vn -0.0049 0.7890 -0.6144
vn 0.4789 0.3164 -0.8189
vn 0.9952 -0.0921 -0.0333
vn 0.5862 -0.0618 -0.8078
vn 0.9674 -0.0246 0.2521
vn 0.9746 0.1774 0.1365
vn 0.8616 0.5059 -0.0413
vn 0.0511 0.5029 -0.8628
vn 0.0484 0.9695 -0.2403
vn 0.2885 -0.0303 -0.9570
vn 0.2056 0.2491 -0.9464
vn 0.2747 0.4577 -0.8456
vn 0.5903 -0.4618 -0.6620
vn 0.7898 -0.2827 -0.5443
vn 0.4451 -0.2714 -0.8533
vn 0.8593 -0.1369 -0.4928
vn 0.3580 0.0544 -0.9321
vn 0.0952 0.2786 -0.9557
vn -0.0614 0.8782 -0.4743
vn 0.8621 0.5053 0.0378
vn 0.4788 0.5407 -0.6916
vn 0.5116 0.8592 0.0098
vn 0.7192 -0.6906 -0.0760
vn 1.0000 -0.0000 -0.0000
vn 0.8013 -0.2618 -0.5379
vn 0.8726 0.4573 0.1719
vn 0.7039 0.1463 0.6950
vn 0.3037 -0.3862 -0.8710
vn 0.2551 -0.1029 -0.9614
vn 0.1653 0.1289 -0.9778
vn 0.2869 0.6618 -0.6926
vn 0.6499 -0.7285 -0.2166
vn 0.1563 0.0583 -0.9860
vn 0.2367 0.9457 -0.2228
vn 0.2540 -0.5049 -0.8249
vn 0.3085 0.9512 0.0121
vn 0.1230 -0.1243 -0.9846
vn 0.6086 0.3331 -0.7202
vn 0.0588 0.0208 -0.9981
vn 0.1870 0.7965 -0.5750
vn -0.0802 -0.4872 -0.8696
vn 0.0081 0.4881 -0.8727
vn 0.0343 0.9988 -0.0335
vn -0.5177 -0.3624 -0.7750
vn -0.4622 0.4669 -0.7540
vn 0.0224 0.9996 -0.0154
vn 0.5406 -0.3785 -0.7513
vn 0.4948 0.4527 -0.7417
vn 0.0140 0.9665 -0.2563
vn 0.1520 -0.5314 -0.8334
vn 0.1063 0.5335 -0.8391
vn 0.0374 0.9993 -0.0061
vn -0.1333 -0.5509 -0.8238
vn -0.1101 0.5356 -0.8373
vn 0.0141 0.9998 -0.0101
vn -0.5365 -0.4370 -0.7220
vn -0.4889 0.4484 -0.7483
vn -0.0772 -0.9929 0.0903
vn -0.0717 -0.9537 -0.2921
vn 0.1469 -0.9848 0.0926
vn 0.1341 -0.9524 -0.2737
vn 0.1358 -0.9905 0.0200
vn -0.0080 1.0000 0.0022
vn -0.0367 -0.0123 -0.9993
vn -0.0218 0.1379 -0.9902
vn 0.0002 0.9805 -0.1965
vn 0.0476 0.9989 -0.0015
vn 0.6319 -0.2649 -0.7284
vn 0.0723 -0.0014 -0.9974
vn 0.5132 0.4544 -0.7281
vn 0.0613 0.1362 -0.9888
vn 0.0435 0.9824 -0.1815
vn 0.8605 -0.5094 -0.0000
vn 0.4964 -0.4707 -0.7294
vn 0.3639 0.3986 -0.8419
vn 0.0290 0.9995 -0.0160
vn 0.4308 -0.9025 -0.0000
vn 0.2218 0.1249 -0.9671
vn 0.0320 0.9995 -0.0000
s 0
f 7//1 5//1 4//1 6//1
f 8//2 6//2 1//2 2//2
f 9//3 7//3 6//3 8//3
f 10//4 8//4 2//4 3//4
f 11//5 9//5 8//5 10//5
f 16//6 15//6 12//6 13//6
f 21//7 20//7 17//7 18//7
f 26//8 13//8 12//8 25//8
f 28//9 27//9 20//9 21//9
f 31//10 30//10 22//10 23//10
f 32//11 31//11 23//11 24//11
f 33//12 32//12 24//12 25//12
f 33//13 15//13 14//13 32//13
f 15//14 33//14 25//14 12//14
f 35//15 18//15 17//15 34//15
f 20//16 37//16 34//16 17//16
f 37//17 38//17 35//17 34//17
f 38//18 21//18 18//18 35//18
f 40//19 23//19 22//19 39//19
f 41//20 24//20 23//20 40//20
f 42//21 25//21 24//21 41//21
f 43//22 26//22 25//22 42//22
f 26//23 43//23 36//23 19//23
f 27//24 44//24 37//24 20//24
f 45//25 28//25 21//25 38//25
f 46//26 29//26 28//26 45//26
f 47//27 30//27 29//27 46//27
f 30//28 47//28 39//28 22//28
f 47//29 48//29 40//29 39//29
f 48//30 49//30 41//30 40//30
f 51//31 38//31 37//31 50//31
f 53//32 42//32 41//32 52//32
f 54//33 43//33 42//33 53//33
f 44//34 55//34 50//34 37//34
f 55//35 56//35 51//35 50//35
f 56//36 45//36 38//36 51//36
f 58//37 47//37 46//37 57//37
f 59//38 48//38 47//38 58//38
f 60//39 49//39 48//39 59//39
f 49//40 60//40 52//40 41//40
f 60//41 61//41 53//41 52//41
f 61//42 62//42 54//42 53//42
f 71//43 16//43 13//43 63//43
f 72//44 71//44 63//44 64//44
f 73//45 72//45 64//45 65//45
f 74//46 73//46 65//46 66//46
f 75//47 74//47 66//47 67//47
f 76//48 75//48 67//48 68//48
f 77//49 76//49 68//49 69//49
f 78//50 77//50 69//50 70//50
f 87//51 26//51 19//51 79//51
f 87//52 63//52 13//52 26//52
f 88//53 87//53 79//53 80//53
f 88//54 64//54 63//54 87//54
f 89//55 88//55 80//55 81//55
f 89//56 65//56 64//56 88//56
f 90//57 89//57 81//57 82//57
f 90//58 66//58 65//58 89//58
f 91//59 90//59 82//59 83//59
f 91//60 67//60 66//60 90//60
f 92//61 91//61 83//61 84//61
f 92//62 68//62 67//62 91//62
f 93//63 92//63 84//63 85//63
f 93//64 69//64 68//64 92//64
f 94//65 93//65 85//65 86//65
f 94//66 70//66 69//66 93//66
f 72//67 96//67 95//67 71//67
f 97//68 79//68 19//68 36//68
f 98//69 80//69 79//69 97//69
f 99//70 81//70 80//70 98//70
f 100//71 82//71 81//71 99//71
f 101//72 83//72 82//72 100//72
f 102//73 84//73 83//73 101//73
f 103//74 85//74 84//74 102//74
f 104//75 86//75 85//75 103//75
f 43//76 105//76 97//76 36//76
f 105//77 106//77 98//77 97//77
f 106//78 107//78 99//78 98//78
f 107//79 108//79 100//79 99//79
f 109//80 94//80 86//80 104//80
f 111//81 101//81 100//81 110//81
f 112//82 102//82 101//82 111//82
f 113//83 103//83 102//83 112//83
f 114//84 104//84 103//84 113//84
f 115//85 105//85 43//85 54//85
f 116//86 106//86 105//86 115//86
f 117//87 107//87 106//87 116//87
f 118//88 108//88 107//88 117//88
f 108//89 118//89 110//89 100//89
f 118//90 119//90 111//90 110//90
f 119//91 120//91 112//91 111//91
f 120//92 121//92 113//92 112//92
f 121//93 122//93 114//93 113//93
f 62//94 123//94 115//94 54//94
f 123//95 124//95 116//95 115//95
f 132//96 78//96 70//96 131//96
f 136//97 131//97 70//97 94//97
f 141//98 132//98 131//98 136//98
f 142//99 141//99 136//99 137//99
f 142//100 133//100 132//100 141//100
f 143//101 142//101 137//101 138//101
f 143//102 134//102 133//102 142//102
f 144//103 143//103 138//103 139//103
f 152//104 109//104 104//104 148//104
f 152//105 136//105 94//105 109//105
f 153//106 152//106 148//106 149//106
f 153//107 137//107 136//107 152//107
f 154//108 153//108 149//108 150//108
f 154//109 138//109 137//109 153//109
f 155//110 154//110 150//110 151//110
f 155//111 139//111 138//111 154//111
f 160//112 144//112 139//112 155//112
f 161//113 160//113 155//113 156//113
f 161//114 145//114 144//114 160//114
f 162//115 161//115 156//115 157//115
f 163//116 162//116 157//116 158//116
f 164//117 163//117 158//117 159//117
f 164//118 147//118 146//118 163//118
f 147//119 164//119 159//119 140//119
f 165//120 148//120 104//120 114//120
f 166//121 149//121 148//121 165//121
f 167//122 150//122 149//122 166//122
f 168//123 151//123 150//123 167//123
f 172//124 155//124 151//124 168//124
f 173//125 172//125 168//125 169//125
f 173//126 156//126 155//126 172//126
f 174//127 157//127 156//127 173//127
f 175//128 158//128 157//128 174//128
f 176//129 175//129 170//129 171//129
f 176//130 159//130 158//130 175//130
f 177//131 10//131 3//131 127//131
f 178//132 11//132 10//132 177//132
f 179//133 177//133 127//133 128//133
f 180//134 178//134 177//134 179//134
f 181//135 179//135 128//135 129//135
f 182//136 180//136 179//136 181//136
f 183//137 181//137 129//137 130//137
f 184//138 182//138 181//138 183//138
f 185//139 183//139 130//139 135//139
f 186//140 184//140 183//140 185//140
f 188//141 147//141 140//141 187//141
f 188//142 185//142 135//142 147//142
f 189//143 186//143 185//143 188//143
f 193//144 187//144 140//144 159//144
f 200//145 188//145 187//145 193//145
f 201//146 200//146 193//146 194//146
f 201//147 189//147 188//147 200//147
f 202//148 190//148 189//148 201//148
f 203//149 202//149 195//149 196//149
f 204//150 203//150 196//150 197//150
f 204//151 192//151 191//151 203//151
f 205//152 204//152 197//152 198//152
f 206//153 205//153 198//153 199//153
f 211//154 176//154 171//154 208//154
f 211//155 193//155 159//155 176//155
f 212//156 194//156 193//156 211//156
f 214//157 196//157 195//157 213//157
f 215//158 214//158 209//158 210//158
f 215//159 197//159 196//159 214//159
f 216//160 198//160 197//160 215//160
f 217//161 199//161 198//161 216//161
f 219//162 201//162 194//162 212//162
f 220//163 219//163 212//163 213//163
f 220//164 202//164 201//164 219//164
f 202//165 220//165 213//165 195//165
f 221//166 206//166 199//166 217//166
f 223//167 221//167 217//167 218//167
f 223//168 207//168 206//168 221//168
f 224//169 225//169 2//169 1//169
f 225//170 227//170 3//170 2//170
f 226//171 228//171 227//171 225//171
f 230//172 229//172 4//172 5//172
f 231//173 224//173 1//173 6//173
f 229//174 231//174 6//174 4//174
f 230//175 232//175 231//175 229//175
f 232//176 230//176 5//176 7//176
f 231//177 233//177 225//177 224//177
f 232//178 234//178 233//178 231//178
f 234//179 232//179 7//179 9//179
f 235//180 226//180 225//180 233//180
f 236//181 235//181 233//181 234//181
f 237//182 234//182 9//182 11//182
f 235//183 238//183 228//183 226//183
f 236//184 239//184 238//184 235//184
f 239//185 236//185 234//185 237//185
f 241//186 240//186 14//186 15//186
f 242//187 241//187 15//187 16//187
f 244//188 243//188 27//188 28//188
f 245//189 244//189 28//189 29//189
f 246//190 245//190 29//190 30//190
f 247//191 246//191 30//191 31//191
f 248//192 247//192 31//192 32//192
f 240//193 248//193 32//193 14//193
f 241//194 249//194 248//194 240//194
f 242//195 250//195 249//195 241//195
f 252//196 251//196 243//196 244//196
f 253//197 252//197 244//197 245//197
f 255//198 254//198 246//198 247//198
f 256//199 255//199 247//199 248//199
f 257//200 256//200 248//200 249//200
f 258//201 257//201 249//201 250//201
f 243//202 259//202 44//202 27//202
f 260//203 261//203 46//203 45//203
f 246//204 262//204 261//204 245//204
f 251//205 267//205 259//205 243//205
f 267//206 268//206 260//206 259//206
f 252//207 268//207 267//207 251//207
f 268//208 269//208 261//208 260//208
f 253//209 269//209 268//209 252//209
f 269//210 253//210 245//210 261//210
f 254//211 270//211 262//211 246//211
f 270//212 271//212 263//212 262//212
f 255//213 271//213 270//213 254//213
f 271//214 272//214 264//214 263//214
f 256//215 272//215 271//215 255//215
f 272//216 273//216 265//216 264//216
f 257//217 273//217 272//217 256//217
f 273//218 274//218 266//218 265//218
f 258//219 274//219 273//219 257//219
f 259//220 275//220 55//220 44//220
f 275//221 276//221 56//221 55//221
f 260//222 276//222 275//222 259//222
f 276//223 260//223 45//223 56//223
f 261//224 277//224 57//224 46//224
f 277//225 278//225 58//225 57//225
f 262//226 278//226 277//226 261//226
f 278//227 279//227 59//227 58//227
f 263//228 279//228 278//228 262//228
f 279//229 280//229 60//229 59//229
f 264//230 280//230 279//230 263//230
f 280//231 281//231 61//231 60//231
f 265//232 281//232 280//232 264//232
f 281//233 282//233 62//233 61//233
f 266//234 282//234 281//234 265//234
f 283//235 242//235 16//235 71//235
f 285//236 284//236 72//236 73//236
f 286//237 285//237 73//237 74//237
f 287//238 286//238 74//238 75//238
f 288//239 287//239 75//239 76//239
f 289//240 288//240 76//240 77//240
f 290//241 289//241 77//241 78//241
f 292//242 291//242 285//242 286//242
f 293//243 292//243 286//243 287//243
f 294//244 293//244 287//244 288//244
f 295//245 294//245 288//245 289//245
f 296//246 295//246 289//246 290//246
f 283//247 297//247 250//247 242//247
f 297//248 283//248 71//248 95//248
f 298//249 297//249 95//249 96//249
f 284//250 298//250 96//250 72//250
f 285//251 299//251 298//251 284//251
f 300//252 258//252 250//252 297//252
f 291//253 301//253 299//253 285//253
f 292//254 302//254 301//254 291//254
f 293//255 303//255 302//255 292//255
f 294//256 304//256 303//256 293//256
f 295//257 305//257 304//257 294//257
f 296//258 306//258 305//258 295//258
f 298//259 309//259 308//259 297//259
f 299//260 310//260 309//260 298//260
f 274//261 312//261 308//261 266//261
f 300//262 312//262 274//262 258//262
f 312//263 300//263 297//263 308//263
f 301//264 313//264 310//264 299//264
f 313//265 314//265 311//265 310//265
f 302//266 314//266 313//266 301//266
f 303//267 315//267 314//267 302//267
f 304//268 316//268 315//268 303//268
f 305//269 317//269 316//269 304//269
f 306//270 318//270 317//270 305//270
f 307//271 319//271 318//271 306//271
f 282//272 320//272 123//272 62//272
f 308//273 320//273 282//273 266//273
f 320//274 321//274 124//274 123//274
f 309//275 321//275 320//275 308//275
f 321//276 322//276 125//276 124//276
f 310//277 322//277 321//277 309//277
f 322//278 323//278 126//278 125//278
f 311//279 323//279 322//279 310//279
f 314//280 327//280 323//280 311//280
f 327//281 328//281 324//281 323//281
f 315//282 328//282 327//282 314//282
f 328//283 329//283 325//283 324//283
f 316//284 329//284 328//284 315//284
f 329//285 330//285 326//285 325//285
f 317//286 330//286 329//286 316//286
f 318//287 331//287 330//287 317//287
f 319//288 332//288 331//288 318//288
f 227//289 333//289 127//289 3//289
f 228//290 334//290 333//290 227//290
f 333//291 335//291 128//291 127//291
f 335//292 336//292 129//292 128//292
f 336//293 338//293 130//293 129//293
f 337//294 339//294 338//294 336//294
f 340//295 290//295 78//295 132//295
f 341//296 340//296 132//296 133//296
f 342//297 341//297 133//297 134//297
f 338//298 343//298 135//298 130//298
f 344//299 296//299 290//299 340//299
f 341//300 346//300 345//300 340//300
f 342//301 347//301 346//301 341//301
f 347//302 342//302 134//302 143//302
f 348//303 347//303 143//303 144//303
f 349//304 348//304 144//304 145//304
f 351//305 350//305 146//305 147//305
f 343//306 351//306 147//306 135//306
f 344//307 352//307 306//307 296//307
f 352//308 344//308 340//308 345//308
f 353//309 352//309 345//309 346//309
f 354//310 353//310 346//310 347//310
f 355//311 354//311 347//311 348//311
f 357//312 307//312 306//312 352//312
f 358//313 357//313 352//313 353//313
f 359//314 358//314 353//314 354//314
f 349//315 361//315 360//315 348//315
f 361//316 349//316 145//316 161//316
f 362//317 361//317 161//317 162//317
f 363//318 362//318 162//318 163//318
f 350//319 363//319 163//319 146//319
f 351//320 364//320 363//320 350//320
f 355//321 366//321 365//321 354//321
f 366//322 355//322 348//322 360//322
f 367//323 366//323 360//323 361//323
f 368//324 367//324 361//324 362//324
f 369//325 368//325 362//325 363//325
f 370//326 369//326 363//326 364//326
f 356//327 370//327 364//327 351//327
f 357//328 371//328 319//328 307//328
f 358//329 372//329 371//329 357//329
f 359//330 373//330 372//330 358//330
f 373//331 359//331 354//331 365//331
f 374//332 373//332 365//332 366//332
f 378//333 377//333 372//333 373//333
f 379//334 378//334 373//334 374//334
f 380//335 379//335 374//335 375//335
f 382//336 381//336 376//336 377//336
f 383//337 382//337 377//337 378//337
f 384//338 383//338 378//338 379//338
f 385//339 384//339 379//339 380//339
f 387//340 386//340 382//340 383//340
f 388//341 387//341 383//341 384//341
f 367//342 390//342 389//342 366//342
f 368//343 391//343 390//343 367//343
f 369//344 392//344 391//344 368//344
f 370//345 393//345 392//345 369//345
f 371//346 394//346 332//346 319//346
f 372//347 395//347 394//347 371//347
f 396//348 374//348 366//348 389//348
f 397//349 396//349 389//349 390//349
f 397//350 375//350 374//350 396//350
f 398//351 397//351 390//351 391//351
f 400//352 399//352 394//352 395//352
f 400//353 377//353 376//353 399//353
f 377//354 400//354 395//354 372//354
f 401//355 380//355 375//355 397//355
f 381//356 402//356 399//356 376//356
f 382//357 403//357 402//357 381//357
f 385//358 405//358 404//358 384//358
f 405//359 385//359 380//359 401//359
f 407//360 406//360 402//360 403//360
f 386//361 407//361 403//361 382//361
f 387//362 408//362 407//362 386//362
f 388//363 409//363 408//363 387//363
f 409//364 388//364 384//364 404//364
f 410//365 409//365 404//365 405//365
f 412//366 411//366 408//366 409//366
f 413//367 412//367 409//367 410//367
f 415//368 237//368 11//368 178//368
f 334//369 416//369 414//369 333//369
f 238//370 416//370 334//370 228//370
f 416//371 417//371 415//371 414//371
f 239//372 417//372 416//372 238//372
f 417//373 239//373 237//373 415//373
f 414//374 418//374 335//374 333//374
f 415//375 419//375 418//375 414//375
f 419//376 415//376 178//376 180//376
f 418//377 420//377 336//377 335//377
f 419//378 421//378 420//378 418//378
f 421//379 419//379 180//379 182//379
f 422//380 337//380 336//380 420//380
f 423//381 422//381 420//381 421//381
f 425//382 421//382 182//382 184//382
f 339//383 426//383 424//383 338//383
f 422//384 426//384 339//384 337//384
f 426//385 427//385 425//385 424//385
f 423//386 427//386 426//386 422//386
f 427//387 423//387 421//387 425//387
f 424//388 428//388 343//388 338//388
f 425//389 429//389 428//389 424//389
f 429//390 425//390 184//390 186//390
f 431//391 430//391 428//391 429//391
f 428//392 432//392 351//392 343//392
f 433//393 429//393 186//393 189//393
f 434//394 433//394 189//394 190//394
f 436//172 435//172 191//172 192//172
f 437//395 356//395 351//395 432//395
f 430//396 437//396 432//396 428//396
f 431//397 438//397 437//397 430//397
f 438//398 431//398 429//398 433//398
f 434//399 440//399 439//399 433//399
f 440//400 434//400 190//400 202//400
f 441//401 440//401 202//401 203//401
f 435//402 441//402 203//402 191//402
f 436//403 442//403 441//403 435//403
f 442//404 436//404 192//404 204//404
f 443//405 442//405 204//405 205//405
f 444//406 443//406 205//406 206//406
f 445//407 444//407 206//407 207//407
f 437//408 446//408 370//408 356//408
f 438//409 447//409 446//409 437//409
f 447//410 438//410 433//410 439//410
f 449//411 448//411 441//411 442//411
f 450//412 449//412 442//412 443//412
f 451//413 450//413 443//413 444//413
f 440//414 453//414 452//414 439//414
f 441//415 454//415 453//415 440//415
f 455//416 456//416 223//416 222//416
f 445//417 456//417 455//417 444//417
f 456//418 445//418 207//418 223//418
f 446//419 457//419 393//419 370//419
f 447//420 458//420 457//420 446//420
f 458//421 447//421 439//421 452//421
f 459//422 458//422 452//422 453//422
f 460//423 459//423 453//423 454//423
f 448//424 460//424 454//424 441//424
f 449//425 461//425 460//425 448//425
f 450//426 462//426 461//426 449//426
f 451//427 463//427 462//427 450//427
f 463//428 451//428 444//428 455//428
f 471//429 470//429 464//429 465//429
f 475//430 474//430 466//430 467//430
f 476//431 475//431 467//431 468//431
f 477//432 476//432 468//432 469//432
f 482//433 481//433 478//433 479//433
f 482//434 465//434 464//434 481//434
f 485//435 467//435 466//435 484//435
f 486//436 468//436 467//436 485//436
f 487//437 469//437 468//437 486//437
f 470//438 488//438 481//438 464//438
f 489//439 471//439 465//439 482//439
f 491//440 473//440 472//440 490//440
f 492//441 491//441 483//441 484//441
f 492//442 474//442 473//442 491//442
f 474//443 492//443 484//443 466//443
f 494//15 479//15 478//15 493//15
f 481//444 496//444 493//444 478//444
f 496//445 497//445 494//445 493//445
f 497//446 482//446 479//446 494//446
f 499//447 484//447 483//447 498//447
f 500//448 485//448 484//448 499//448
f 501//449 486//449 485//449 500//449
f 502//450 487//450 486//450 501//450
f 487//451 502//451 495//451 480//451
f 488//452 503//452 496//452 481//452
f 503//453 504//453 497//453 496//453
f 504//454 489//454 482//454 497//454
f 505//455 490//455 489//455 504//455
f 506//456 491//456 490//456 505//456
f 491//457 506//457 498//457 483//457
f 506//458 507//458 499//458 498//458
f 507//459 508//459 500//459 499//459
f 508//460 509//460 501//460 500//460
f 511//461 502//461 501//461 510//461
f 513//462 509//462 508//462 512//462
f 509//463 513//463 510//463 501//463
f 513//464 514//464 511//464 510//464
f 523//465 117//465 116//465 522//465
f 524//466 523//466 515//466 516//466
f 524//467 118//467 117//467 523//467
f 525//468 524//468 516//468 517//468
f 525//469 119//469 118//469 524//469
f 526//470 525//470 517//470 518//470
f 526//471 120//471 119//471 525//471
f 527//472 526//472 518//472 519//472
f 527//473 121//473 120//473 526//473
f 528//474 527//474 519//474 520//474
f 528//475 122//475 121//475 527//475
f 122//476 528//476 520//476 114//476
f 529//477 477//477 469//477 521//477
f 530//478 529//478 521//478 522//478
f 124//479 530//479 522//479 116//479
f 125//480 531//480 530//480 124//480
f 126//481 532//481 531//481 125//481
f 536//482 516//482 515//482 535//482
f 537//483 517//483 516//483 536//483
f 538//484 518//484 517//484 537//484
f 539//485 519//485 518//485 538//485
f 540//486 520//486 519//486 539//486
f 541//487 487//487 480//487 533//487
f 541//488 521//488 469//488 487//488
f 542//489 541//489 533//489 534//489
f 542//490 522//490 521//490 541//490
f 543//491 542//491 534//491 535//491
f 543//492 523//492 522//492 542//492
f 523//493 543//493 535//493 515//493
f 545//68 533//68 480//68 495//68
f 546//69 534//69 533//69 545//69
f 547//494 535//494 534//494 546//494
f 548//495 536//495 535//495 547//495
f 549//496 537//496 536//496 548//496
f 550//497 538//497 537//497 549//497
f 551//498 539//498 538//498 550//498
f 552//499 540//499 539//499 551//499
f 502//500 553//500 545//500 495//500
f 553//501 554//501 546//501 545//501
f 554//502 555//502 547//502 546//502
f 555//503 556//503 548//503 547//503
f 556//504 557//504 549//504 548//504
f 557//505 558//505 550//505 549//505
f 558//506 559//506 551//506 550//506
f 559//507 560//507 552//507 551//507
f 560//508 544//508 540//508 552//508
f 563//509 553//509 502//509 511//509
f 564//510 554//510 553//510 563//510
f 565//511 555//511 554//511 564//511
f 566//512 556//512 555//512 565//512
f 567//513 557//513 556//513 566//513
f 568//514 558//514 557//514 567//514
f 569//515 559//515 558//515 568//515
f 570//516 560//516 559//516 569//516
f 514//517 571//517 563//517 511//517
f 571//518 572//518 564//518 563//518
f 562//519 572//519 571//519 561//519
f 572//520 573//520 565//520 564//520
f 573//521 574//521 566//521 565//521
f 574//522 575//522 567//522 566//522
f 575//523 576//523 568//523 567//523
f 576//524 577//524 569//524 568//524
f 577//525 578//525 570//525 569//525
f 579//526 165//526 114//526 520//526
f 580//527 166//527 165//527 579//527
f 581//528 167//528 166//528 580//528
f 582//529 168//529 167//529 581//529
f 583//530 169//530 168//530 582//530
f 585//531 171//531 170//531 584//531
f 586//532 587//532 583//532 582//532
f 587//533 173//533 169//533 583//533
f 588//534 174//534 173//534 587//534
f 589//535 175//535 174//535 588//535
f 175//536 589//536 584//536 170//536
f 589//537 590//537 585//537 584//537
f 591//538 579//538 520//538 540//538
f 592//539 580//539 579//539 591//539
f 593//540 581//540 580//540 592//540
f 594//541 582//541 581//541 593//541
f 544//542 595//542 591//542 540//542
f 595//543 596//543 592//543 591//543
f 596//544 597//544 593//544 592//544
f 597//545 598//545 594//545 593//545
f 598//546 586//546 582//546 594//546
f 599//547 587//547 586//547 598//547
f 600//548 588//548 587//548 599//548
f 601//549 589//549 588//549 600//549
f 602//550 590//550 589//550 601//550
f 603//551 604//551 599//551 598//551
f 604//552 605//552 600//552 599//552
f 605//553 606//553 601//553 600//553
f 606//554 607//554 602//554 601//554
f 608//555 595//555 544//555 560//555
f 609//556 596//556 595//556 608//556
f 610//557 597//557 596//557 609//557
f 611//558 598//558 597//558 610//558
f 613//559 614//559 609//559 608//559
f 614//560 615//560 610//560 609//560
f 615//561 616//561 611//561 610//561
f 616//562 603//562 598//562 611//562
f 617//563 604//563 603//563 616//563
f 619//564 607//564 606//564 618//564
f 607//565 619//565 612//565 602//565
f 620//566 608//566 560//566 570//566
f 578//567 621//567 620//567 570//567
f 621//568 613//568 608//568 620//568
f 622//569 614//569 613//569 621//569
f 623//570 615//570 614//570 622//570
f 629//571 208//571 171//571 585//571
f 631//15 210//15 209//15 630//15
f 590//572 632//572 629//572 585//572
f 632//573 211//573 208//573 629//573
f 633//574 212//574 211//574 632//574
f 634//575 213//575 212//575 633//575
f 635//576 214//576 213//576 634//576
f 214//577 635//577 630//577 209//577
f 635//578 636//578 631//578 630//578
f 636//579 215//579 210//579 631//579
f 637//580 216//580 215//580 636//580
f 638//581 217//581 216//581 637//581
f 639//582 218//582 217//582 638//582
f 640//583 641//583 634//583 633//583
f 223//584 643//584 642//584 222//584
f 643//585 223//585 218//585 639//585
f 644//586 632//586 590//586 602//586
f 645//587 633//587 632//587 644//587
f 647//588 635//588 634//588 646//588
f 648//589 636//589 635//589 647//589
f 649//590 637//590 636//590 648//590
f 650//591 638//591 637//591 649//591
f 651//592 639//592 638//592 650//592
f 652//593 653//593 645//593 644//593
f 653//594 640//594 633//594 645//594
f 654//595 641//595 640//595 653//595
f 641//596 654//596 646//596 634//596
f 654//597 655//597 647//597 646//597
f 655//598 656//598 648//598 647//598
f 656//599 657//599 649//599 648//599
f 657//600 658//600 650//600 649//600
f 658//601 659//601 651//601 650//601
f 659//602 643//602 639//602 651//602
f 660//603 644//603 602//603 612//603
f 619//604 661//604 660//604 612//604
f 661//605 652//605 644//605 660//605
f 662//606 653//606 652//606 661//606
f 663//607 654//607 653//607 662//607
f 665//608 656//608 655//608 664//608
f 666//609 661//609 619//609 624//609
f 667//610 662//610 661//610 666//610
f 668//611 666//611 624//611 625//611
f 669//612 667//612 666//612 668//612
f 670//613 668//613 625//613 626//613
f 671//614 669//614 668//614 670//614
f 672//615 670//615 626//615 627//615
f 673//616 671//616 670//616 672//616
f 674//617 672//617 627//617 628//617
f 675//618 673//618 672//618 674//618
f 679//619 674//619 628//619 676//619
f 680//620 675//620 674//620 679//620
f 681//621 679//621 676//621 677//621
f 682//622 680//622 679//622 681//622
f 683//623 681//623 677//623 678//623
f 684//624 682//624 681//624 683//624
f 686//625 684//625 683//625 685//625
f 688//626 687//626 470//626 471//626
f 690//627 689//627 472//627 473//627
f 691//628 690//628 473//628 474//628
f 692//629 691//629 474//629 475//629
f 693//630 692//630 475//630 476//630
f 694//631 693//631 476//631 477//631
f 687//632 695//632 488//632 470//632
f 688//633 696//633 695//633 687//633
f 696//634 688//634 471//634 489//634
f 697//635 696//635 489//635 490//635
f 689//636 697//636 490//636 472//636
f 690//637 698//637 697//637 689//637
f 691//638 699//638 698//638 690//638
f 692//639 700//639 699//639 691//639
f 693//640 701//640 700//640 692//640
f 694//641 702//641 701//641 693//641
f 704//642 703//642 695//642 696//642
f 705//643 704//643 696//643 697//643
f 707//644 706//644 698//644 699//644
f 708//645 707//645 699//645 700//645
f 709//646 708//646 700//646 701//646
f 710//647 709//647 701//647 702//647
f 695//648 711//648 503//648 488//648
f 711//649 712//649 504//649 503//649
f 712//650 713//650 505//650 504//650
f 713//651 714//651 506//651 505//651
f 698//652 714//652 713//652 697//652
f 714//653 715//653 507//653 506//653
f 715//654 716//654 508//654 507//654
f 703//655 719//655 711//655 695//655
f 719//656 720//656 712//656 711//656
f 704//207 720//207 719//207 703//207
f 720//657 721//657 713//657 712//657
f 705//209 721//209 720//209 704//209
f 721//658 705//658 697//658 713//658
f 706//659 722//659 714//659 698//659
f 722//660 723//660 715//660 714//660
f 707//213 723//213 722//213 706//213
f 723//661 724//661 716//661 715//661
f 708//215 724//215 723//215 707//215
f 724//662 725//662 717//662 716//662
f 709//217 725//217 724//217 708//217
f 725//663 726//663 718//663 717//663
f 710//219 726//219 725//219 709//219
f 716//664 727//664 512//664 508//664
f 727//665 728//665 513//665 512//665
f 717//666 728//666 727//666 716//666
f 728//667 729//667 514//667 513//667
f 718//668 729//668 728//668 717//668
f 730//669 694//669 477//669 529//669
f 731//670 730//670 529//670 530//670
f 732//671 731//671 530//671 531//671
f 733//672 732//672 531//672 532//672
f 323//673 733//673 532//673 126//673
f 324//674 734//674 733//674 323//674
f 325//675 735//675 734//675 324//675
f 326//676 736//676 735//676 325//676
f 738//677 737//677 733//677 734//677
f 739//678 738//678 734//678 735//678
f 740//679 739//679 735//679 736//679
f 330//680 740//680 736//680 326//680
f 331//681 741//681 740//681 330//681
f 332//682 742//682 741//682 331//682
f 730//683 743//683 702//683 694//683
f 731//684 744//684 743//684 730//684
f 732//685 745//685 744//685 731//685
f 733//686 746//686 745//686 732//686
f 747//687 710//687 702//687 743//687
f 749//688 748//688 745//688 746//688
f 737//689 749//689 746//689 733//689
f 738//690 750//690 749//690 737//690
f 739//691 751//691 750//691 738//691
f 740//692 752//692 751//692 739//692
f 741//693 753//693 752//693 740//693
f 742//694 754//694 753//694 741//694
f 755//695 756//695 562//695 561//695
f 744//696 756//696 755//696 743//696
f 745//697 757//697 756//697 744//697
f 726//698 758//698 755//698 718//698
f 747//262 758//262 726//262 710//262
f 758//699 747//699 743//699 755//699
f 748//700 759//700 757//700 745//700
f 749//701 760//701 759//701 748//701
f 750//702 761//702 760//702 749//702
f 751//703 762//703 761//703 750//703
f 752//704 763//704 762//704 751//704
f 753//705 764//705 763//705 752//705
f 754//706 765//706 764//706 753//706
f 729//707 766//707 571//707 514//707
f 755//708 766//708 729//708 718//708
f 766//709 755//709 561//709 571//709
f 756//710 767//710 572//710 562//710
f 767//711 768//711 573//711 572//711
f 757//712 768//712 767//712 756//712
f 768//713 769//713 574//713 573//713
f 769//714 770//714 575//714 574//714
f 770//715 771//715 576//715 575//715
f 771//716 772//716 577//716 576//716
f 772//717 773//717 578//717 577//717
f 759//718 774//718 768//718 757//718
f 774//719 775//719 769//719 768//719
f 760//720 775//720 774//720 759//720
f 775//721 776//721 770//721 769//721
f 761//722 776//722 775//722 760//722
f 776//723 777//723 771//723 770//723
f 762//724 777//724 776//724 761//724
f 777//725 778//725 772//725 771//725
f 763//726 778//726 777//726 762//726
f 778//727 779//727 773//727 772//727
f 764//728 779//728 778//728 763//728
f 392//729 783//729 782//729 391//729
f 393//730 784//730 783//730 392//730
f 394//731 785//731 742//731 332//731
f 787//732 788//732 781//732 780//732
f 788//733 789//733 782//733 781//733
f 398//734 789//734 788//734 397//734
f 789//735 398//735 391//735 782//735
f 399//736 790//736 785//736 394//736
f 790//737 791//737 786//737 785//737
f 792//738 401//738 397//738 788//738
f 402//739 793//739 790//739 399//739
f 796//740 405//740 401//740 792//740
f 406//741 797//741 793//741 402//741
f 797//742 798//742 794//742 793//742
f 407//743 798//743 797//743 406//743
f 408//744 799//744 798//744 407//744
f 800//745 801//745 796//745 795//745
f 801//746 410//746 405//746 796//746
f 411//747 802//747 799//747 408//747
f 802//748 803//748 800//748 799//748
f 412//749 803//749 802//749 411//749
f 803//750 804//750 801//750 800//750
f 413//751 804//751 803//751 412//751
f 804//752 413//752 410//752 801//752
f 806//753 807//753 605//753 604//753
f 807//754 808//754 606//754 605//754
f 811//755 812//755 806//755 805//755
f 781//756 812//756 811//756 780//756
f 812//757 813//757 807//757 806//757
f 782//758 813//758 812//758 781//758
f 813//759 814//759 808//759 807//759
f 783//760 814//760 813//760 782//760
f 814//761 815//761 809//761 808//761
f 784//762 815//762 814//762 783//762
f 785//763 816//763 754//763 742//763
f 786//764 817//764 816//764 785//764
f 818//765 819//765 811//765 810//765
f 819//766 787//766 780//766 811//766
f 820//767 788//767 787//767 819//767
f 822//768 791//768 790//768 821//768
f 791//769 822//769 817//769 786//769
f 822//770 823//770 818//770 817//770
f 823//771 824//771 819//771 818//771
f 824//772 825//772 820//772 819//772
f 825//773 792//773 788//773 820//773
f 793//774 826//774 821//774 790//774
f 826//775 827//775 822//775 821//775
f 794//776 827//776 826//776 793//776
f 827//777 828//777 823//777 822//777
f 828//778 829//778 824//778 823//778
f 829//779 830//779 825//779 824//779
f 796//780 830//780 829//780 795//780
f 830//781 796//781 792//781 825//781
f 798//782 831//782 827//782 794//782
f 831//783 832//783 828//783 827//783
f 799//784 832//784 831//784 798//784
f 832//785 833//785 829//785 828//785
f 800//786 833//786 832//786 799//786
f 833//787 800//787 795//787 829//787
f 836//788 837//788 616//788 615//788
f 837//789 838//789 617//789 616//789
f 806//790 838//790 837//790 805//790
f 838//791 806//791 604//791 617//791
f 808//792 839//792 618//792 606//792
f 839//793 840//793 619//793 618//793
f 809//794 840//794 839//794 808//794
f 841//795 842//795 835//795 834//795
f 842//796 843//796 836//796 835//796
f 843//797 844//797 837//797 836//797
f 811//798 844//798 843//798 810//798
f 844//799 811//799 805//799 837//799
f 815//800 845//800 840//800 809//800
f 765//801 846//801 841//801 764//801
f 816//802 846//802 765//802 754//802
f 846//803 847//803 842//803 841//803
f 817//804 847//804 846//804 816//804
f 847//805 848//805 843//805 842//805
f 818//806 848//806 847//806 817//806
f 848//807 818//807 810//807 843//807
f 773//808 849//808 621//808 578//808
f 849//809 850//809 622//809 621//809
f 835//810 850//810 849//810 834//810
f 850//811 851//811 623//811 622//811
f 836//812 851//812 850//812 835//812
f 851//813 836//813 615//813 623//813
f 840//814 852//814 624//814 619//814
f 779//815 853//815 849//815 773//815
f 841//816 853//816 779//816 764//816
f 853//817 841//817 834//817 849//817
f 852//818 854//818 625//818 624//818
f 854//819 856//819 626//819 625//819
f 855//820 857//820 856//820 854//820
f 856//821 858//821 627//821 626//821
f 858//822 859//822 628//822 627//822
f 864//823 455//823 222//823 642//823
f 865//824 864//824 642//824 643//824
f 457//825 866//825 784//825 393//825
f 458//826 867//826 866//826 457//826
f 867//827 868//827 862//827 861//827
f 459//828 868//828 867//828 458//828
f 868//829 869//829 863//829 862//829
f 460//830 869//830 868//830 459//830
f 461//831 870//831 869//831 460//831
f 462//832 871//832 870//832 461//832
f 463//833 872//833 871//833 462//833
f 872//834 463//834 455//834 864//834
f 862//835 874//835 873//835 861//835
f 874//836 875//836 655//836 654//836
f 863//837 875//837 874//837 862//837
f 876//838 877//838 657//838 656//838
f 877//839 878//839 658//839 657//839
f 878//840 879//840 659//840 658//840
f 865//841 879//841 878//841 864//841
f 879//842 865//842 643//842 659//842
f 866//843 880//843 815//843 784//843
f 867//844 881//844 880//844 866//844
f 881//845 867//845 861//845 873//845
f 869//846 882//846 875//846 863//846
f 882//847 883//847 876//847 875//847
f 870//848 883//848 882//848 869//848
f 883//849 884//849 877//849 876//849
f 871//850 884//850 883//850 870//850
f 872//851 885//851 884//851 871//851
f 885//852 872//852 864//852 878//852
f 887//853 888//853 663//853 662//853
f 874//854 888//854 887//854 873//854
f 888//855 874//855 654//855 663//855
f 875//856 889//856 664//856 655//856
f 889//857 890//857 665//857 664//857
f 876//858 890//858 889//858 875//858
f 890//859 876//859 656//859 665//859
f 892//860 878//860 877//860 891//860
f 845//861 893//861 886//861 840//861
f 880//862 893//862 845//862 815//862
f 881//863 894//863 893//863 880//863
f 894//864 881//864 873//864 887//864
f 884//865 895//865 891//865 877//865
f 895//857 896//857 892//857 891//857
f 885//866 896//866 895//866 884//866
f 896//867 885//867 878//867 892//867
f 886//868 897//868 852//868 840//868
f 898//869 887//869 662//869 667//869
f 893//870 899//870 897//870 886//870
f 899//871 900//871 898//871 897//871
f 894//872 900//872 899//872 893//872
f 900//873 894//873 887//873 898//873
f 897//874 901//874 854//874 852//874
f 898//875 902//875 901//875 897//875
f 902//876 898//876 667//876 669//876
f 903//877 855//877 854//877 901//877
f 904//878 903//878 901//878 902//878
f 906//879 902//879 669//879 671//879
f 857//880 907//880 905//880 856//880
f 903//384 907//384 857//384 855//384
f 907//881 908//881 906//881 905//881
f 904//386 908//386 907//386 903//386
f 908//882 904//882 902//882 906//882
f 905//883 909//883 858//883 856//883
f 906//884 910//884 909//884 905//884
f 910//885 906//885 671//885 673//885
f 909//886 911//886 859//886 858//886
f 910//887 912//887 911//887 909//887
f 912//888 910//888 673//888 675//888
f 913//889 860//889 859//889 911//889
f 914//890 913//890 911//890 912//890
f 859//891 915//891 676//891 628//891
f 860//892 916//892 915//892 859//892
f 915//893 917//893 677//893 676//893
f 916//894 918//894 917//894 915//894
f 917//895 919//895 678//895 677//895
f 920//896 912//896 675//896 680//896
f 913//897 921//897 916//897 860//897
f 914//898 922//898 921//898 913//898
f 922//899 914//899 912//899 920//899
f 924//900 920//900 680//900 682//900
f 918//901 925//901 923//901 917//901
f 921//902 925//902 918//902 916//902
f 925//903 926//903 924//903 923//903
f 922//904 926//904 925//904 921//904
f 926//905 922//905 920//905 924//905
f 919//906 927//906 683//906 678//906
f 923//907 927//907 919//907 917//907
f 924//908 928//908 927//908 923//908
f 928//909 924//909 682//909 684//909
f 927//910 929//910 685//910 683//910
f 929//857 930//857 686//857 685//857
f 928//911 930//911 929//911 927//911
f 930//912 928//912 684//912 686//912
